ply
format ascii 1.0
element vertex 2303
property float x
property float y
property float z
property uchar red
property uchar green
property uchar blue
end_header
-0.00690088 -0.0791706 0.991859 6 20 218
0.162349 0.166585 1.0987 31 38 214
0.0854662 0.119021 0.923258 17 32 216
0.220892 0.0624692 1.14455 47 13 214
0.221204 0.101312 1.10902 48 24 213
-0.171231 0.121317 0.988388 46 28 212
-0.149087 0.136452 0.616186 54 47 207
-0.173183 0.126105 0.703364 54 38 209
-0.236541 -0.048409 1.03587 50 10 213
-0.263079 0.148801 1.0295 56 30 210
0.168729 0.157003 0.9939 36 37 213
0.21692 0.00894779 1.15032 43 0 215
0.227013 -0.0508016 1.1437 45 12 214
0.0287825 -0.0504473 0.944476 9 28 217
0.030534 -0.044225 0.96484 0 16 219
-0.158933 -0.0659194 1.05205 41 16 215
0.0511883 -0.0589849 1.01984 5 19 218
0.0635375 -0.00736201 0.949707 11 3 219
-0.0104922 0.041611 0.951291 10 10 219
0.00318318 -0.0345468 0.965922 7 11 219
-0.0135236 0.0324872 0.941043 13 7 219
0.187913 0.00574442 1.18377 37 1 216
-0.107792 0.0311193 0.944494 42 7 215
0.283569 -0.117504 1.14309 55 25 211
0.0151537 0.218308 0.984915 1 49 214
0.155951 -0.0562834 1.14455 29 16 217
-0.0630882 -0.0417716 1.01552 28 14 217
0.0519058 -0.0597172 1.0387 3 21 218
-0.128714 0.140601 0.594038 49 50 208
-0.176233 -0.0324772 0.981457 45 8 215
-0.22837 -0.0500002 0.996657 51 11 213
-0.0998057 0.0497659 0.813803 54 16 212
0.0127788 0.0817465 0.932576 8 24 218
0.011346 -0.050147 0.971447 9 19 218
-0.117476 0.124308 0.935047 39 32 213
0.085204 0.0868088 0.945821 16 24 218
0.0813074 0.0496608 0.938326 15 13 219
0.244939 0.0861827 1.1191 50 17 213
0.165712 0.199039 0.760139 44 55 208
0.264393 -0.0856575 1.12185 50 17 213
0.181284 0.215983 0.820786 45 55 207
0.0869351 0.118462 0.918648 17 32 216
0.160722 -0.0598943 1.18318 29 15 217
-0.0901107 -0.0262188 1.00516 31 8 217
0.201762 -0.0527365 1.12209 41 15 215
0.0837644 0.108604 0.954233 16 29 217
0.0799464 0.100572 0.931064 14 28 217
-0.0692803 0.0839446 0.938133 42 26 213
-0.0271503 -0.00852119 0.865708 39 12 215
-0.0278213 -0.00901563 0.870947 37 12 216
0.245918 0.0868038 1.12246 57 20 211
0.170888 0.0231701 1.16259 34 3 217
-0.0758942 -0.061937 1.0706 43 26 214
-0.0684921 -0.0441558 1.04421 41 21 215
-0.0479897 0.02882 0.942496 20 6 218
0.0927803 0.0803664 0.960562 18 20 218
0.000864956 0.0325415 0.78618 26 10 217
0.0484637 -0.0594453 1.01197 0 26 218
0.0534817 -0.0637021 1.02447 2 25 218
0.0532772 -0.06406 1.02521 4 21 218
-0.0506398 0.0290851 0.951594 24 6 218
-0.0666896 -0.0808069 1.03507 25 22 217
-0.124389 0.214506 0.96939 30 48 212
-0.235744 -0.0535197 1.06968 53 12 212
-0.117317 -0.0753448 1.03732 35 20 215
-0.0534815 -0.0841374 0.999233 21 23 217
-0.0340572 -0.0736627 0.9867 14 19 218
0.192022 -0.0720202 1.16039 37 19 215
0.0531146 -0.0247304 0.961724 6 8 219
0.202172 -0.0486586 1.01265 43 12 215
0.168239 0.149376 0.968206 38 38 213
-0.0621318 0.0382416 0.960941 25 8 218
0.00685308 0.0837619 0.938178 10 24 218
-0.0493726 0.0161919 0.938162 30 2 217
-0.0126497 0.0164529 0.93915 14 2 219
-0.037975 0.017485 0.942247 23 2 218
-0.107128 0.00590058 0.950361 39 0 216
-0.0655008 -0.080665 1.03106 23 21 217
-0.0463428 0.0270592 0.901945 18 6 219
0.0353552 -0.0709403 1.03456 1 20 218
-0.0734711 -0.0277608 1.01749 21 7 218
-0.128379 0.127257 0.776182 47 39 211
-0.059337 0.0461903 0.945571 31 12 217
0.00397052 -0.112713 0.98232 5 29 217
0.0085242 -0.146688 1.11776 2 31 217
-0.191815 -0.0668747 1.04703 52 16 212
-0.116295 -0.011283 0.981844 35 3 216
0.00571374 -0.0192821 0.950173 8 8 219
-0.156628 -0.0514513 1.04087 41 12 215
-0.0528786 0.0461004 0.93953 22 11 218
-0.0377033 0.0446442 0.943008 23 11 218
-0.018627 0.0324534 0.941182 16 7 219
-0.0121848 0.0338572 0.956789 13 7 219
-0.0705953 0.207177 0.903358 19 50 213
-0.0856084 0.200406 0.938137 24 48 213
-0.0234756 0.190861 0.903767 8 47 214
0.0688086 0.23898 0.968735 14 54 212
-0.0470869 0.193035 0.919515 13 47 214
-0.11423 -0.0761765 1.02559 32 19 216
-0.052808 -0.0417922 1.00196 26 15 217
-0.00467415 0.190944 0.943447 3 46 215
-0.0833385 0.227886 0.928918 22 54 211
-0.115489 -0.0211429 0.987764 35 6 216
-0.128496 0.140973 0.927933 37 34 213
-0.0325928 -0.0346359 0.977245 19 12 218
-0.0034925 -0.055777 0.997501 11 18 218
-0.10996 -0.0775519 1.03914 30 19 216
-0.0239236 -0.0752595 0.990787 17 24 217
0.190247 0.00575028 1.19589 36 1 216
0.158073 0.232818 0.891046 36 56 209
0.0801198 0.0381058 0.93357 15 9 219
-0.0963961 0.0052143 0.964184 24 0 218
-0.0855514 0.23182 0.944385 21 53 212
-0.0291597 -0.0532637 0.981819 15 15 218
-0.0720081 -0.0685739 1.04361 39 27 214
-0.176574 0.247529 1.08899 36 48 211
-0.176702 0.135162 0.99417 46 31 212
-0.118035 -0.021903 0.996144 34 6 217
-0.116724 -0.0124352 0.992343 35 4 216
-0.0433309 -0.0128723 0.957943 21 5 218
-0.0767604 0.238309 0.913618 20 56 211
-0.0893474 -0.0259883 1.01653 28 7 217
-0.0555212 -0.0616569 1.01371 21 17 218
-0.0584348 0.211817 0.924927 15 49 213
-0.0608067 0.0443597 0.941842 26 11 217
-0.0143119 0.22969 0.889006 5 56 212
-0.0183267 0.0325163 0.939857 15 7 219
-0.0171798 0.0347018 0.939866 12 8 219
-0.0214218 -0.0422918 0.981017 11 12 219
-0.0142024 -0.0418344 0.979397 14 15 218
-0.0882927 0.224067 0.911195 22 53 212
-0.116653 -0.0293036 0.88184 33 8 217
-0.173518 0.140932 0.736737 53 40 209
0.0492319 -0.0544477 1.00425 7 15 219
-0.00327224 -0.0832371 0.989698 9 25 218
0.0168353 -0.0403329 0.989985 2 12 219
0.0276594 -0.0501733 0.989216 4 19 219
0.0158039 -0.0463324 0.985958 3 14 219
0.0141642 -0.0364079 0.985922 4 11 219
0.0769997 -0.0234139 0.946187 12 13 219
-0.0188791 -0.0382216 0.964442 21 18 217
0.152265 0.078043 1.22745 26 15 217
0.0782598 -0.0166701 0.944833 13 10 219
0.0563045 0.00597572 0.934106 5 2 219
0.106161 0.093087 1.03327 19 27 217
-0.158282 -0.0717416 1.05588 47 18 213
-0.130696 0.0455716 1.0006 48 10 214
-0.0578791 -0.0287597 0.969796 23 10 218
0.0873449 0.123657 0.925113 17 38 215
-0.259541 -0.0316359 1.00635 57 7 212
-0.0468597 -0.0169282 0.984026 19 5 218
0.0211815 0.222884 0.919572 3 52 213
0.0215493 0.226912 0.957591 3 51 213
-0.0856535 0.0803807 0.77236 34 24 215
-0.0216972 -0.0401197 0.980453 15 13 218
-0.179124 0.133275 0.959735 44 30 213
-0.25765 -0.0343041 1.03417 55 7 212
-0.0468003 -0.0298907 0.985362 20 9 218
-0.0886948 -0.0571619 1.02663 31 17 216
-0.122306 -0.0644876 1.00466 28 14 217
-0.23851 -0.0437523 1.02151 52 9 213
-0.0530672 -0.0836102 0.994554 21 23 217
-0.092241 0.0182305 0.945506 31 3 217
-0.200679 -0.0650261 1.03344 48 14 214
-0.120253 0.235443 0.946228 29 53 211
0.00559636 -0.0910438 0.997879 5 24 218
-0.146733 -0.0886727 0.977564 43 23 214
-0.0622047 0.0163193 0.941321 26 2 218
0.0119645 0.184944 0.902153 0 46 215
-0.10092 0.0298059 0.944345 35 6 216
-0.0369574 0.18797 0.938748 10 44 215
-0.023256 0.127915 0.928461 12 33 216
-0.0938494 -0.079014 1.04612 28 19 217
0.143196 -0.0436602 1.15578 26 11 218
0.115979 -0.0504699 1.17228 19 18 218
-0.029279 -0.0367018 0.971163 26 17 217
-0.0952119 0.00714116 0.944983 36 0 216
-0.0331959 -0.0314753 0.974227 31 17 216
0.220751 0.062632 1.14208 46 13 214
0.0229156 -0.0592323 1.02938 4 22 218
-0.0225563 -0.0710297 0.985156 14 22 218
0.0189226 0.107079 0.932304 7 35 216
-0.0817431 -0.0678044 1.02034 35 22 215
0.207656 -0.0561462 1.14473 41 15 215
0.202756 0.153426 1.08152 46 41 210
0.172988 -0.0611712 1.15705 32 16 216
-0.0594845 -0.0426375 1.02258 21 11 218
-0.0626572 0.0158401 0.944677 26 2 218
0.17143 0.102039 1.20449 31 21 216
-0.21087 -0.0382403 0.999281 48 8 214
-0.116831 -0.0124683 0.993626 35 4 216
-0.0205933 0.0857121 0.941379 17 24 217
-0.190152 -0.0334389 1.02126 45 7 214
-0.121294 -0.0655968 0.985076 32 16 216
0.0297742 -0.0392002 0.974266 4 17 219
-0.051598 -0.0883212 0.990364 24 28 216
0.204656 0.0032692 1.15171 41 1 216
-0.0371755 -0.0768531 0.975313 16 21 218
-0.0397858 0.0473706 1.05898 21 10 218
0.13208 -0.0901694 1.19776 22 23 217
0.0876249 -0.0831155 1.19819 11 22 218
0.0924845 0.083266 0.970325 17 22 218
-0.138932 -0.0509406 1.0338 39 13 215
-0.229717 -0.113726 1.05899 52 24 211
0.0449206 -0.0713689 1.03156 3 22 218
-0.165296 -0.0709854 1.04645 46 18 214
-0.260194 0.142179 1.0373 55 29 210
-0.233779 -0.0251972 1.004 52 5 213
-0.148467 0.137711 0.773631 47 39 210
-0.145758 0.136537 0.629845 52 46 208
-0.106635 -0.0266872 0.806435 32 8 217
-0.257412 -0.0445687 1.0275 55 9 212
-0.238304 -0.026216 1.02252 52 5 213
-0.13194 0.233798 0.933704 32 53 210
-0.0864052 0.0789475 0.768584 33 24 215
0.1498 0.145221 0.963469 32 33 215
0.179071 0.0144067 1.15744 34 1 217
0.172734 -0.0645748 1.16197 33 17 216
0.0165493 -0.0385122 1.02556 0 9 219
-0.129244 0.136422 0.928455 40 35 213
0.050074 -0.0517146 1.01655 4 17 219
-0.0568498 0.0298776 0.942718 25 6 218
0.0486844 -0.0656014 1.01508 6 18 219
-0.05609 0.126593 0.93661 27 36 214
0.221412 -0.0511679 1.19605 46 16 214
0.186985 -0.0557409 1.15688 38 18 215
0.133681 -0.053764 1.17061 23 17 217
0.0732669 -0.0227606 0.94654 11 10 219
0.0686125 0.0828227 0.918321 9 29 217
0.0369677 0.0925892 0.933843 4 32 217
0.081669 0.0849575 0.926726 14 27 217
0.133939 -0.0540652 1.17553 23 14 218
0.141849 -0.00272264 1.15367 26 2 218
0.0946027 -0.0489598 1.17345 13 15 219
-0.0221808 0.0265809 0.939164 25 5 218
-0.0526385 0.188742 0.93761 15 45 214
0.0375211 0.126779 0.945764 5 32 217
0.250109 0.0867737 1.1434 51 18 213
-0.11203 -0.0230734 0.994914 32 6 217
0.0494793 -0.0619443 1.02051 5 17 219
-0.147112 -0.0591345 1.03603 37 14 216
0.164636 -0.090089 1.1759 30 21 216
-0.225056 -0.0939912 1.0441 54 21 212
0.257667 -0.0699567 1.14444 49 15 213
0.255609 -0.000198855 1.1317 49 0 214
-0.135844 0.105389 0.945027 45 27 213
-0.0999793 -0.0241291 0.762141 51 11 213
-0.0190564 -0.0756795 0.991331 12 21 218
0.0110604 -0.0193124 0.944645 4 7 219
-0.213061 -0.0720344 0.992148 48 16 213
-0.0897567 -0.0494478 1.02903 38 17 215
0.00558368 -0.0903252 0.990781 5 25 218
0.132698 0.0566919 1.17911 23 11 218
-0.171362 0.121051 0.989269 45 28 213
-0.150914 0.137922 0.62356 54 47 207
-0.0798248 -0.00799013 0.700418 27 2 218
0.176493 0.0782137 0.895294 44 21 214
0.226192 -0.0514401 1.11393 44 12 215
0.0386342 -0.0550855 1.02269 0 18 219
-0.135323 0.124643 0.585005 52 45 208
0.160983 -0.00545894 1.11907 31 3 217
-0.0426503 0.129244 0.935326 22 36 215
0.0991546 0.0771717 0.970161 19 20 218
-0.0147991 0.0328582 0.940438 18 7 219
-0.260647 -0.0218266 1.00592 57 4 212
-0.121857 0.148686 0.773435 37 42 212
-0.258921 -0.0352791 1.03903 55 7 212
-0.17985 0.0905303 0.768318 52 25 212
-0.172456 0.141104 1.00541 52 34 210
0.150577 0.0766112 1.21353 26 15 217
0.0182146 0.109215 0.946428 10 37 216
0.255955 0.102582 1.13236 53 22 212
0.174965 0.10624 1.19877 32 22 216
-0.0648988 0.120703 0.938225 33 35 214
-0.00462874 -0.038933 0.989933 11 14 219
0.0236153 0.121207 0.926364 9 43 215
-0.0357568 0.0148185 0.948224 19 2 218
-0.039781 0.0939171 0.948088 32 30 215
-0.026714 0.174506 0.989985 13 43 215
0.0511521 -0.0645695 1.01351 4 19 219
-0.110478 0.0167794 0.955716 41 2 215
-0.21066 -0.0944294 1.04565 52 22 212
-0.0493 -0.0172692 1.00525 19 5 218
-0.0975291 0.132433 0.946865 35 35 214
-0.0969227 0.0362676 0.825355 31 9 217
-0.193518 0.149656 0.925559 46 34 212
-0.0149351 -0.0425602 0.986444 23 21 217
-0.0876177 -0.0492552 1.02477 35 17 215
0.00311735 -0.0188714 0.947602 13 11 219
0.255413 0.0201133 1.26427 43 3 215
0.219186 0.0545241 0.894827 52 12 213
0.143972 -0.0924835 1.20984 25 17 217
0.139696 0.195852 0.747255 38 55 209
0.118255 -0.0862482 1.05055 23 18 217
0.177046 0.21676 0.880108 41 53 209
-0.0709227 -0.0442766 1.05547 34 16 216
0.198388 0.0042651 1.1138 38 0 216
0.171504 0.161581 1.10197 34 35 214
-0.0219799 0.0148281 0.920864 26 1 218
-0.088551 0.204722 0.955704 24 48 213
0.308228 -0.129708 1.23852 54 25 211
-0.094247 0.0276266 0.885958 29 6 217
0.0497428 -0.0519723 1.01238 4 16 219
-0.116888 -0.0691824 0.982116 42 21 214
-0.0355698 0.175405 0.990858 16 43 214
-0.0620376 -0.116277 1.04979 21 30 216
0.136178 -0.00271279 1.10071 25 1 218
0.0472779 -0.0416345 0.895598 3 15 219
-0.111005 0.205511 0.931169 28 48 212
-0.217255 -0.0642423 1.05677 50 14 213
-0.00712524 -0.0415134 1.02014 9 12 219
-0.0853601 0.182811 0.999381 27 44 213
-0.0125939 0.202431 0.910195 5 49 214
-0.0316534 0.213941 0.891635 9 52 213
-0.0740493 0.239795 0.953762 18 55 212
-0.0510456 0.177254 0.906452 17 45 214
-0.0465845 0.0843812 0.941356 25 23 216
-0.0262506 0.201031 0.890951 9 50 213
-0.0146264 -0.0421609 0.982195 14 14 218
-0.0499422 0.0870274 0.959878 37 28 214
-0.012934 0.187493 0.892389 5 46 214
0.166893 0.160218 1.0765 32 36 214
0.000922252 -0.0364565 0.979446 10 14 219
0.253973 -0.0677497 1.13517 51 16 213
0.0503436 -0.0516615 1.01959 5 16 219
0.0516262 -0.0674198 1.03294 6 20 218
-0.225012 0.139745 0.896707 55 33 210
0.021619 -0.00832868 0.800236 22 17 218
-0.252377 0.141917 0.985187 56 30 210
0.0927233 0.0795457 0.973506 17 21 218
0.0935598 0.19621 0.91903 20 47 213
0.0108461 -0.0508013 0.980992 7 18 218
-0.0143229 0.0368479 0.957385 4 8 219
0.256754 -0.0699544 1.13853 48 14 214
0.263798 -0.0723457 1.1689 50 16 213
0.0109846 0.212959 0.959057 0 48 214
-0.0745054 -0.0723659 1.03055 29 22 216
-0.253387 0.138306 1.01357 55 29 210
0.0226437 0.238535 0.921452 3 56 212
-0.0641374 -0.074995 1.03249 20 18 218
0.220001 0.0842895 0.946143 49 19 213
-0.112999 0.225038 0.951062 28 51 211
-0.00917973 0.0415446 0.939743 12 10 219
0.0927657 0.125584 0.924023 18 36 215
-0.261444 0.141632 1.05414 54 28 211
0.224327 0.0937554 1.0697 47 20 213
0.231328 -0.0517007 1.16181 45 13 214
0.189705 -0.0560725 1.17261 36 14 216
-0.118803 -0.0475302 1.01611 45 15 214
0.0346897 0.12621 0.935334 1 38 216
0.064211 0.0814498 0.904112 8 24 218
0.0806122 0.0162463 0.870976 14 2 219
-0.00365754 -0.0408545 0.956061 19 20 217
-0.0345061 -0.0321357 0.974477 35 17 216
-0.144666 -0.0877636 0.968962 42 22 214
-0.183356 0.12305 0.797988 51 33 211
-0.0276154 0.218189 0.834291 9 56 212
-0.0947579 0.225664 0.941417 23 52 212
-0.000994581 0.213306 0.886118 2 53 213
-0.0154101 0.215512 0.895889 5 52 213
-0.00730929 0.225546 0.90803 4 55 212
-0.0152738 0.217982 0.863946 5 54 212
-0.0154598 0.208435 0.936972 5 49 214
0.163785 0.143261 0.923746 37 33 214
0.164915 -0.00552752 1.14123 31 2 217
-0.0283688 0.186415 0.92899 10 46 214
0.0588432 -0.0520321 1.05804 10 12 219
-0.160259 0.133036 0.981078 41 30 213
0.0574985 0.00618882 0.950901 8 0 219
0.135039 -0.00399878 1.16429 24 2 218
0.057299 0.00606442 0.943878 7 0 219
-0.107888 -0.0575735 1.03399 40 18 215
0.0176728 -0.0358582 0.975681 3 12 219
0.0300377 0.169724 0.984014 1 41 215
-0.115396 -0.0700347 1.03859 35 18 216
0.0875989 -0.0656775 1.06197 14 17 218
0.0800351 -0.0993564 1.13643 11 25 218
0.0514378 -0.0300055 0.970722 6 9 219
0.00886597 -0.0371463 0.9886 8 14 219
-0.0310044 -0.0334323 0.94379 15 10 219
0.0361694 0.126071 0.936329 4 45 215
0.172468 0.0736023 1.21075 31 14 217
-0.037757 0.0173138 0.941543 34 1 217
0.0690033 0.121886 0.924787 10 40 215
0.0194231 0.0936834 0.826657 11 38 216
-0.0544174 0.0363631 0.942821 36 9 216
-0.264556 -0.0577505 1.04162 56 12 212
-0.258357 -0.0455945 1.03307 55 9 212
-0.151627 0.151605 0.617248 54 51 206
-0.134598 0.157741 0.859302 36 39 213
-0.238925 -0.0613016 1.04882 52 13 213
-0.230039 0.141316 0.901658 56 33 210
0.062264 0.00703282 0.94535 8 0 219
-0.107435 -0.0272861 0.821058 32 8 217
-0.247794 -0.0492647 1.0652 54 10 212
-0.240193 -0.0480743 1.05206 53 10 213
-0.250623 0.13427 1.01185 55 28 211
0.0656754 -0.0243584 0.954897 9 10 219
0.195254 -0.0636346 1.15897 37 15 216
-0.231659 -0.0187744 0.903968 57 4 212
0.136505 -0.0891512 1.18387 23 22 217
0.0806826 0.228517 0.908983 17 55 212
-0.0220728 -0.0516345 0.97575 10 14 219
0.0195137 -0.0476741 1.00662 8 20 218
-0.17549 0.117328 0.836819 47 30 212
-0.255829 -0.0449 1.02408 55 9 212
0.206423 0.00575832 1.14758 41 0 216
-0.0863047 0.0598179 0.433017 47 29 212
0.255619 0.000217804 1.13041 51 1 213
-0.145268 0.133663 0.753714 47 39 210
0.207884 0.00586898 1.15418 40 0 216
0.221316 0.0195227 1.15034 43 2 215
-0.0262414 -0.0312897 0.93565 33 21 216
-0.0071132 0.0329708 0.911 22 8 218
0.0656067 0.0838031 0.926777 8 29 217
-0.0599211 0.0393365 0.943034 30 9 217
0.209541 0.0125211 1.11148 49 0 214
0.223732 -0.0690626 1.14391 50 24 212
-0.236748 -0.0400083 0.995478 52 8 213
-0.182859 0.135261 0.976652 49 31 211
-0.0397159 -0.0782651 0.988052 19 23 217
0.0407638 -0.0640957 1.02175 2 19 219
-0.0365816 0.177456 1.00126 15 43 215
0.167996 0.155766 0.988144 35 37 213
0.052021 -0.0645245 1.02774 6 18 219
0.0807119 0.106451 0.933919 14 31 217
0.0395634 -0.0559054 1.02055 3 23 218
-0.0212295 0.0409109 0.938318 26 11 218
0.0810173 0.0707226 0.887384 13 25 218
0.105436 -0.0509604 1.09665 17 18 218
0.0821244 0.0795584 0.958782 14 23 218
-0.170724 0.101673 1.97354 26 12 217
0.0672421 -0.0233907 0.910572 7 13 219
-0.10475 -0.0137283 0.817262 36 5 216
-0.102116 -0.0427539 1.02206 33 12 216
-0.0432882 0.213737 0.906768 13 52 213
0.0138347 -0.0398642 0.977982 5 14 219
0.085197 -0.0764225 1.12837 15 15 218
-0.0738083 0.237281 0.915219 19 56 211
-0.153745 -0.073614 1.04782 40 17 215
-0.0153746 0.0268492 0.947863 15 5 219
0.0737435 0.249707 1.0187 14 52 213
0.03257 -0.0491287 0.977663 0 16 219
-0.18842 0.146471 0.904255 47 34 212
0.0893141 -0.0453519 1.09981 15 11 219
0.227517 0.104245 1.13087 50 25 212
0.0506236 0.1253 0.928985 6 34 217
-0.184337 0.131858 0.981321 45 29 213
-0.226261 -0.0499948 0.899631 55 12 212
-0.1074 -0.0284677 0.828591 30 7 217
-0.145837 0.121332 0.605008 54 42 208
-0.00226882 0.0381621 0.279713 7 30 217
-0.10659 0.213702 0.97318 26 48 212
-0.115805 -0.0121682 0.985865 36 4 216
-0.130267 0.142838 0.595208 49 51 208
-0.169324 0.113419 0.8111 47 30 212
-0.108641 -0.0278481 0.825556 30 7 217
-0.231535 -0.0246388 0.998249 52 5 213
-0.0617914 -0.0291879 0.982208 25 9 218
-0.0983682 -0.0247155 1.01041 31 7 217
-0.233693 -0.0252618 1.02474 50 5 213
-0.0116771 0.0138084 0.948449 12 2 219
-0.0981653 0.039829 0.841263 37 11 216
-0.221785 -0.0422011 1.06955 54 9 212
-0.0237542 -0.0512563 0.979499 17 17 218
-0.0727691 0.193989 0.889685 20 48 213
-0.0305594 -0.0356957 0.966597 16 11 218
-0.12772 0.135146 0.940034 40 34 213
-0.16295 -0.0646428 1.04386 45 16 214
-0.0685668 0.236839 0.923025 18 55 212
-0.031263 -0.0640683 0.976772 17 19 218
-0.114916 -0.0696715 1.03469 37 19 215
-0.107307 0.212918 0.972248 26 48 213
-0.156814 -0.065061 1.04168 42 16 214
-0.177972 -0.059044 1.04872 44 14 214
-0.0551382 -0.106839 0.987596 19 27 217
-0.0927603 0.0180458 0.948686 30 3 217
-0.0433551 0.129753 0.938926 22 36 215
-0.145671 -0.0879744 0.97353 43 23 214
-0.182673 0.236434 1.12226 36 45 212
-0.00804215 -0.0768744 0.985189 11 24 218
-0.0250024 0.188122 0.883843 7 46 214
-0.0956416 0.00727378 0.953645 32 0 217
-0.0234334 0.0274597 0.955875 16 5 219
-0.147443 -0.0886763 0.984327 42 22 214
-0.0549538 0.184442 0.93691 19 47 213
0.0293737 0.168244 0.783901 5 48 214
0.231459 -0.0685576 1.1677 44 16 214
0.186279 0.148247 1.02223 38 32 214
0.175999 0.0132371 1.13878 33 1 217
-0.123634 -0.0806838 0.988437 40 23 214
-0.0945851 0.00797039 0.948154 33 0 217
-0.0637982 0.215479 0.925031 16 50 213
-0.259008 -0.0455172 1.03657 55 9 212
0.0513697 -0.0583618 1.0115 4 20 218
-0.0987078 0.0231056 0.9279 44 4 215
-0.13249 0.148979 0.948269 41 37 212
-0.11889 0.0432364 0.952192 45 10 214
0.197539 -0.0944591 1.16607 37 22 215
-0.172065 0.125109 0.941259 47 30 212
0.17143 0.166652 1.10801 32 34 214
0.194215 -0.0636787 1.1547 38 17 215
0.190563 0.00343553 1.14927 36 0 216
0.158741 0.0937885 1.10515 30 20 216
0.141938 0.108811 1.22179 25 21 217
0.134749 -0.0888196 1.18543 22 23 217
0.0725535 0.0011897 0.79991 11 6 219
0.072149 0.00139324 0.790242 11 6 219
0.0741755 -0.0174071 0.889399 11 11 219
0.0685605 -0.0178337 0.905021 8 12 219
-0.110262 -0.0787665 1.05127 32 19 216
0.0403738 -0.0598776 0.990882 0 22 218
-0.0553272 0.0168669 0.944914 21 3 218
0.0416911 -0.0387507 0.975347 2 13 219
-0.00486525 -0.0391731 0.974324 10 13 219
0.0488447 -0.0683572 1.02506 4 21 218
0.0534097 -0.0579134 1.00984 6 17 219
-0.0120177 0.0255467 0.912724 26 4 218
0.10224 0.0809198 0.994373 19 26 217
0.0703809 -0.0993881 1.15132 9 24 218
0.228573 0.098089 1.11006 53 24 211
-0.113095 0.0115314 0.958692 47 0 214
0.0937279 -0.0726817 1.1538 14 19 218
0.00206738 0.18358 0.986449 5 45 215
-0.00871707 -0.0766981 0.98857 11 23 218
-0.0641518 0.146715 0.995172 24 37 215
-0.0350774 -0.0333604 0.975012 21 12 218
-0.0933566 -0.0782443 1.03998 30 21 216
-0.0135463 -0.0722242 1.06667 7 17 219
-0.0984861 0.24325 0.990829 24 53 211
0.00492663 -0.0910534 1.00166 5 24 218
-0.063089 -0.0420872 1.01823 20 11 218
0.00637364 -0.0191272 0.947289 7 8 219
0.0094935 0.198491 0.972535 0 46 214
-0.0924956 -0.0643995 1.04054 30 17 217
0.0538527 -0.10969 1.01566 7 26 218
0.00229173 0.179591 0.970035 7 46 214
-0.118916 -0.049527 1.03527 46 17 214
-0.0681448 -0.0554778 1.02957 28 17 217
-0.0206164 -0.0513444 0.973091 13 15 218
-0.0951077 -0.0011195 0.948581 28 1 218
0.0115806 -0.0481526 0.998685 4 14 219
-0.0204506 0.086579 0.947606 20 25 217
0.0142827 -0.0362122 0.979223 2 10 219
0.0490241 -0.0677108 1.04299 6 18 219
0.0131051 -0.0439544 0.973867 6 15 219
-0.238068 -0.0523199 1.05499 55 11 212
-0.0460905 -0.0292361 0.980633 34 14 216
-0.0423131 -0.013308 0.962565 33 10 217
-0.196063 -0.0668866 1.05042 46 15 214
0.191272 -0.0645342 1.14966 39 19 215
0.194363 -0.0646352 1.15764 37 16 216
-0.0855516 0.0777722 0.76218 38 25 214
-0.106631 0.024159 0.943238 43 4 215
0.0539546 -0.0256559 0.965324 4 12 219
-0.060833 0.021213 0.94353 31 4 217
-0.243524 -0.0491043 1.05358 57 11 211
-0.0833123 0.0785957 0.749165 41 26 214
0.0815418 -0.101696 1.15639 11 23 218
-0.134978 0.103189 0.933311 38 25 215
-0.0586617 -0.028966 0.980482 25 10 218
0.0602554 -0.090993 1.16271 6 21 218
0.0288277 -0.111743 0.969452 1 29 217
0.0269237 -0.0409688 0.970056 1 13 219
0.0295653 -0.0507837 0.996943 0 17 219
-0.015018 0.0331963 0.947832 15 7 219
0.0250552 -0.0597968 1.02694 1 17 219
0.0305364 -0.040167 0.971967 0 14 219
-0.0989665 -0.0048 0.792304 32 2 217
-0.148729 0.120724 0.616471 54 41 208
-0.222445 0.138869 0.890448 55 33 210
-0.130856 0.131735 0.79553 38 36 213
0.136183 -0.0587711 1.15382 24 15 218
-0.158739 0.106923 0.795251 46 29 213
-0.137751 0.223867 0.904772 35 53 210
-0.100075 -0.00533912 0.800871 29 1 217
-0.00929592 0.0412629 0.952162 10 9 219
-0.127116 0.225978 0.903127 32 53 210
0.0123968 0.188083 0.916496 0 46 214
-0.139608 0.105463 0.960161 36 24 215
-0.0241238 0.192335 0.911693 8 46 214
-0.102903 0.0222993 0.955098 34 4 217
-0.0853593 0.0792057 0.766066 34 24 215
0.0348863 0.126139 0.93435 3 42 215
0.0620619 0.00687878 0.957696 9 0 219
-0.00147606 -0.0546327 0.980466 5 14 219
0.171567 -0.0664352 1.04397 35 17 216
0.0925492 0.206273 0.869516 21 52 212
0.156474 -0.06354 1.15172 29 14 217
-0.0186509 -0.0737646 0.985297 14 22 218
-0.260942 -0.0317032 1.01153 57 7 212
-0.101918 -0.0263107 0.774691 59 13 211
0.00467444 -0.0972297 1.00668 4 25 218
0.119511 0.114091 1.06142 21 27 217
-0.0573972 -0.0644981 1.01905 22 18 217
0.0876087 0.124719 0.930644 17 34 216
-0.0362433 -0.0754942 0.996311 21 24 217
-0.0618554 0.016662 0.942254 26 3 218
-0.106331 0.0309936 0.938938 48 8 214
-0.144629 -0.0346629 0.919579 45 10 214
-0.076935 -0.0653905 0.925723 33 22 216
-0.0508968 -0.0362616 0.981194 26 14 217
-0.163149 -0.0339732 0.939531 51 10 213
-0.0232101 0.131634 0.958639 12 33 216
0.199309 0.00384731 1.18959 37 0 216
0.021255 -0.045783 0.982778 9 22 218
0.223021 0.0960933 1.08156 54 25 211
0.061646 0.129661 0.972359 9 32 217
-0.0206455 0.0401463 0.930898 19 10 218
0.221906 0.0975387 1.12262 45 21 213
0.0554791 0.12612 0.941572 6 36 216
0.0798522 0.0504955 0.914524 17 13 218
0.232585 0.100487 1.11774 50 23 212
0.100121 -0.00244562 1.21924 14 3 219
0.00652156 0.083825 0.940349 10 25 218
-0.0412589 -0.0322968 1.0021 32 17 216
0.225285 -0.058985 1.08238 46 15 214
-0.0279811 0.180173 0.903697 11 45 214
-0.12061 0.148882 0.620385 44 51 209
-0.129522 0.125716 0.635981 46 42 210
-0.165447 0.115198 0.828809 45 30 213
-0.194856 0.136363 0.884183 51 33 211
0.176081 0.113723 1.23514 33 23 216
0.175214 0.113167 1.23042 33 23 216
-0.0101884 0.0335731 0.933221 11 7 219
0.0794363 0.0194469 0.873137 18 3 219
0.174473 0.107369 1.22171 31 22 216
0.0418917 -0.0443112 0.85736 3 23 218
-0.0243469 0.0279963 0.960262 19 5 218
0.190046 0.157493 1.09314 38 36 213
0.0364977 0.128215 0.943434 2 35 216
-0.254627 0.137635 1.02764 55 28 211
0.274294 -0.0523048 1.08797 57 13 212
-0.0230903 0.0282871 0.947979 13 5 219
-0.0352172 -0.104062 1.56058 14 21 218
-0.0128911 0.0134666 0.962708 24 0 218
-0.00801268 0.0137085 0.910724 22 0 218
0.0822189 0.104675 0.931392 15 29 217
-0.0216842 0.0275992 0.940042 20 5 218
0.0271157 -0.0135744 0.688391 16 25 217
0.0838573 0.106647 0.934655 15 37 216
0.0806449 0.105471 0.960069 12 32 217
0.0606817 0.00830385 0.899943 6 2 219
0.0666424 -0.024292 0.948741 11 10 219
0.0664421 -0.0167123 0.896009 9 15 219
-0.03861 -0.0114067 0.922875 37 11 216
-0.0162558 0.0268466 0.938905 16 5 219
-0.0373583 -0.0127846 0.924006 32 10 217
-0.21228 -0.0596867 1.05122 48 13 214
-0.0799555 0.11743 0.841577 23 30 216
-0.167166 0.115866 0.837943 45 29 213
-0.201607 -0.0361099 0.956974 47 8 214
-0.207287 -0.0602439 1.05265 45 13 214
-0.187061 -0.0309377 1.00683 43 7 215
-0.132434 0.231227 0.912201 33 54 210
-0.193721 0.124429 0.917297 50 30 212
-0.168376 0.134329 0.983306 46 31 212
0.0778334 -0.0226297 0.938501 14 8 219
0.00526669 0.187004 0.891146 0 46 215
-0.100863 -0.0153031 0.795356 30 4 217
-0.040402 -0.0128087 0.945569 21 5 218
-0.00135877 0.167834 0.797434 2 46 215
-0.0288176 0.0190771 0.948988 17 3 219
-0.00932932 -0.056107 0.989627 12 18 218
-0.00944138 0.0415738 0.941987 13 10 219
0.24342 0.0852398 1.10829 51 19 212
0.100032 0.086639 0.989087 19 23 217
0.0038023 -0.110546 0.964574 5 29 217
0.00257553 -0.115559 1.00078 5 29 217
-0.0149062 0.205203 0.923606 5 50 213
-0.196466 -0.0596522 1.06579 45 13 214
-0.180213 0.134464 1.00894 47 31 212
-0.12222 -0.06299 1.02396 32 15 217
-0.108328 -0.0703863 1.018 29 17 217
-0.0317271 -0.0646803 0.985372 17 20 218
0.162034 -0.0608523 1.19314 31 21 216
0.244481 0.0190722 1.20101 53 1 213
-0.228117 -0.0451792 0.983992 52 10 213
0.1351 -0.0582929 1.1552 24 16 217
0.137278 0.106206 1.19726 23 22 217
0.0912311 0.082845 0.961847 17 26 217
0.178396 0.00724689 1.14214 36 0 216
0.200193 0.143058 0.99267 47 38 211
0.0566594 0.126152 0.939138 7 36 216
-0.0244127 0.06467 0.936352 21 18 218
0.0935534 0.0872818 0.979635 18 24 217
0.0615023 -0.116153 1.09719 6 29 217
0.0769466 0.0185637 0.849021 13 3 219
0.0762986 -0.0231246 0.933952 13 9 219
-0.0230161 -0.0578984 0.975988 17 20 218
0.0488437 -0.068028 1.02228 3 23 218
-0.0770206 -0.0558495 1.0285 30 18 216
-0.0564142 -0.0725895 1.00873 23 21 217
-0.0146783 -0.0696243 0.935759 12 22 218
0.199545 -0.0560894 1.14303 40 15 215
0.0662595 -0.0122914 0.846281 7 16 219
-0.0912732 -0.0643493 1.0301 31 18 216
-0.0496453 0.0288437 0.942525 21 6 218
-0.0298697 -0.0533216 0.9768 15 16 218
-0.227954 -0.0379371 1.05202 53 8 213
0.00511809 -0.0941389 0.978189 5 26 218
0.100109 -0.135927 1.10798 17 29 217
-0.0881991 -0.0637145 1.0441 29 17 217
-0.0302338 0.143406 0.975672 14 35 216
0.030793 0.168608 0.981855 1 41 215
-0.0561622 0.0424188 0.927032 25 10 218
-0.0181934 0.0838553 0.925046 28 29 216
-0.154789 0.133299 0.62322 55 45 208
-0.134671 0.120292 0.638284 48 40 210
-0.147769 0.134736 0.631847 54 45 208
-0.229279 0.142523 0.915009 55 33 210
-0.148163 0.135584 0.61253 54 47 207
-0.15694 0.105786 0.786459 46 29 213
-0.15484 0.154548 0.62884 54 51 206
-0.183462 0.111722 0.822108 50 29 212
0.0354536 -0.0709821 1.03412 2 19 219
0.138166 -0.0463045 1.01906 30 16 217
-0.11979 -0.0693584 0.985789 38 19 215
0.146321 0.149219 1.09901 29 38 214
0.157245 -0.0636275 1.15593 29 16 217
0.230329 0.09681 1.09817 49 22 213
0.242764 0.0907003 1.11824 54 21 212
0.24489 0.0036596 1.13378 50 0 214
-0.0128121 0.0399681 0.939969 18 10 218
-0.206185 -0.0503892 1.04458 54 12 212
-0.22125 -0.0742617 1.02444 54 17 212
-0.214724 0.149287 1.10596 49 30 212
0.106068 0.079666 0.982287 22 19 217
-0.0458906 0.0477521 0.99051 35 12 216
-0.243901 0.124212 2.4685 29 11 217
0.0921059 0.0846587 0.977949 16 26 217
0.165272 -0.0425197 1.14431 32 14 217
0.0566693 0.0041264 0.973903 1 3 219
0.260845 0.116273 1.26362 51 25 212
0.0572081 0.00592161 0.850553 4 3 219
-0.10768 0.0702654 1.48856 32 12 217
-0.267485 -0.036153 1.07178 55 7 212
0.0911681 -0.0402423 1.13521 16 8 219
-0.235486 -0.0612144 1.03451 57 14 211
-0.0132828 0.186625 0.934775 7 46 214
-0.052027 0.0299549 0.966132 32 6 216
0.0783181 0.120093 0.920352 14 35 216
-0.107891 -0.0571313 1.02938 33 15 216
0.0625488 -0.00752689 0.929512 8 6 219
-0.0709322 0.191747 0.884107 19 47 213
-0.0138045 0.0370367 0.957258 31 9 217
-0.0598713 0.0389217 0.941277 30 9 217
-0.0458591 0.0284403 0.912469 21 6 218
-0.129612 0.144173 0.940794 34 34 214
-0.127808 0.102022 0.9309 37 25 215
-0.095598 0.236027 0.964889 24 53 211
0.0162625 -0.0132011 0.862304 22 17 218
-0.0381532 0.204392 0.894721 11 50 213
-0.109866 0.016261 0.94962 35 3 216
-0.087872 -0.0470649 1.02425 32 14 216
-0.109169 -0.0708747 1.03792 33 18 216
-0.110802 0.226052 0.969236 26 50 212
-0.0325228 -0.0650585 0.99804 13 17 218
-0.0468173 0.196598 0.88888 14 49 213
-0.0866462 -0.0622368 1.02828 26 16 217
-0.0259775 0.203642 0.901229 8 50 214
-0.0747431 -0.0617085 1.03159 25 16 217
-0.034324 0.0390471 0.947836 20 9 218
-0.112768 -0.0213733 0.991046 32 6 217
-0.001089 0.216032 0.896519 2 53 213
-0.105727 0.00184203 0.941126 29 0 218
-0.120703 0.12605 0.945361 36 31 214
-0.143741 -0.0597328 1.04572 38 14 216
-0.0674117 -0.0822139 1.0456 20 19 218
-0.0184029 -0.0708648 0.97677 12 20 218
-0.11692 -0.0224674 0.987833 34 6 217
-0.149219 0.138223 0.774336 48 40 210
-0.176859 0.12998 0.944033 47 31 212
0.163156 0.150677 0.940452 36 38 213
0.208518 -0.0557854 1.15641 38 12 216
0.234608 -0.0729648 1.16836 46 18 214
0.262857 -0.0713929 1.16852 50 16 213
0.182045 0.204112 1.02705 37 45 212
0.233051 -0.00208858 1.1383 47 2 214
0.191596 0.216478 1.08325 37 44 212
0.218392 0.00865849 1.15876 43 0 215
0.232987 -0.06829 1.17262 45 17 214
0.100392 0.0854744 0.98008 19 23 217
-0.101014 -0.0255211 0.774698 47 10 214
-0.138634 -0.0195173 1.00623 45 6 215
0.0496813 -0.0622676 1.02673 5 17 219
-0.0164072 -0.0174207 0.952336 17 8 218
0.040561 -0.0624059 1.01327 1 20 218
0.0595146 -0.095471 0.957836 8 26 218
-0.108185 0.0303591 0.949621 38 6 216
0.173128 0.156891 1.0126 37 40 213
0.190106 -0.0498999 1.04551 39 12 216
0.193126 0.00347867 1.16455 36 0 216
0.167623 -0.00821141 1.14454 32 3 217
0.220121 0.103109 1.11489 44 22 214
-0.0612444 0.0471353 0.936444 25 12 217
0.0661676 -0.0121631 0.844436 7 16 219
-0.0180623 -0.0441557 0.901245 35 29 214
-0.00949591 0.0345034 0.931655 29 9 217
-0.0258271 0.0274746 0.958947 34 5 217
-0.00967429 0.0345119 0.933175 29 9 217
-0.00870961 0.0334666 0.931888 29 8 217
-0.127743 0.134636 0.942983 38 33 213
-0.0384517 -0.0612409 0.992809 20 18 218
0.170548 0.101523 1.32529 28 19 217
0.173238 -0.0624984 1.15623 33 16 216
0.216325 0.0937224 1.09419 43 19 214
0.23686 -0.0740271 1.18023 45 18 214
-0.221451 0.138269 0.889161 54 33 210
-0.108328 -0.0172924 0.849487 31 5 217
-0.166149 -0.0700367 1.04573 41 16 215
-0.138534 0.105264 0.785508 42 29 213
-0.15011 0.122179 0.623081 54 41 208
0.214554 -0.0495075 1.16033 42 13 215
-0.0772497 -0.100484 1.32669 23 23 217
0.224662 0.093716 1.1378 51 22 212
-0.088582 -0.0570265 1.02657 39 20 215
0.0632239 -0.0233131 0.942322 9 11 219
-0.198754 -0.0529805 1.04552 49 12 214
-0.0143441 -0.0521595 0.976595 12 16 218
0.0516587 -0.0672038 1.03339 4 21 218
0.0304286 -0.0542542 1.01063 0 16 219
-0.0565913 0.0398532 0.892207 18 10 218
0.0127737 -0.0253672 1.01505 6 10 219
0.0850604 0.063693 0.984418 15 17 218
0.0787804 -0.025242 0.96914 14 10 219
-0.0306008 0.0223532 0.939196 27 3 218
-0.0183274 -0.0185241 0.972994 16 9 218
0.198823 -0.0907647 1.17064 42 29 213
0.230518 -0.00156103 1.12582 51 3 213
-0.0422606 -0.0315814 0.998766 19 10 218
0.0117372 0.0821329 0.937215 7 23 218
0.171231 -0.00831073 1.16136 35 6 216
0.0286076 -0.0507573 0.971955 1 14 219
-0.0310006 0.138026 0.975218 15 35 216
0.00196857 -0.115483 0.999472 5 29 217
-0.0155787 -0.0428244 0.986131 15 15 218
0.0167086 -0.0581909 1.03355 4 18 219
0.0117616 -0.0170186 0.891673 19 14 218
-0.245045 0.131641 0.988745 55 28 211
0.0138313 -0.0403135 0.97685 5 14 219
-0.0333061 -0.034769 0.983231 21 13 218
-0.0498295 -0.0560308 0.971451 37 27 214
0.014723 -0.0237472 0.991062 3 8 219
-0.0408138 -0.0126832 0.94532 24 7 218
0.0121926 -0.0477436 0.950845 17 27 217
-0.0121656 0.0165195 0.935517 21 2 218
0.00893891 0.0811488 0.918987 14 28 217
-0.058544 0.0159432 0.927183 43 1 215
0.0517411 -0.0298568 0.967893 2 15 219
0.0804421 -0.101355 1.15692 11 23 218
-0.178048 0.136267 0.739996 53 39 209
-0.072973 -0.0558745 1.02769 26 16 217
-0.074608 -0.0275354 1.0077 24 7 218
-0.165644 -0.0704519 1.04748 44 17 214
-0.0434935 -0.0141864 0.964888 20 5 218
-0.0749964 -0.0281666 1.00767 33 10 216
-0.06278 0.0161136 0.94607 27 2 218
-0.031344 0.0245094 0.947236 19 5 218
-0.106449 0.209137 0.892666 28 50 212
-0.0464235 0.197653 0.891832 13 48 214
-0.0466371 -0.0306172 0.985446 21 10 218
-0.0432369 0.129721 0.93846 20 35 215
-0.102604 0.0229478 0.949639 36 4 216
-0.109201 -0.058128 1.0421 31 15 217
-0.0619758 0.199523 1.0181 15 43 215
0.00806967 0.176456 0.894092 2 46 214
-0.145468 0.160835 0.836538 41 42 211
-0.102409 0.0229619 0.950016 35 4 216
-0.0471665 -0.0168698 0.983642 16 5 219
0.0223596 0.222918 0.919075 3 53 213
-0.157397 -0.0602728 1.00995 37 13 216
-0.0351119 -0.0329504 0.975537 19 11 218
0.0801153 0.0772112 0.930845 14 22 218
-0.119474 -0.0524152 0.985353 38 14 215
-0.0652474 -0.0793797 1.02667 32 27 215
-0.0977065 0.00847027 0.948857 37 0 216
-0.136251 0.161355 0.633805 48 54 207
-0.118265 0.146216 0.609905 44 51 209
0.165258 0.152157 0.969495 36 40 213
0.0451055 -0.0730958 1.04765 3 20 218
-0.0599263 -0.0624635 1.01561 29 22 216
-0.0767409 -0.0560654 1.02902 23 14 217
0.137623 -0.0972026 1.17647 24 22 217
0.0155693 0.130064 0.941188 5 37 216
0.0244296 -0.0576585 1.02264 1 17 219
0.0187171 0.208634 0.950847 2 48 214
-0.11697 0.137363 0.75161 37 40 213
-0.19388 0.135543 0.879993 52 34 210
-0.147523 0.123528 0.608246 54 43 208
-0.173312 0.125577 0.926042 46 30 212
-0.147092 0.119724 0.610192 54 41 208
-0.268244 0.149324 1.04027 56 30 210
-0.141615 0.133243 0.613778 52 46 208
-0.252478 -0.0734043 1.02991 54 15 212
-0.133723 0.119437 0.634839 48 40 210
-0.0304142 0.139278 0.985772 16 36 216
-0.057115 0.0462814 0.935917 41 13 215
-0.0662961 0.0842611 0.941901 43 27 213
0.135502 -0.0983024 1.16161 25 29 216
-0.113253 0.00741515 0.945498 49 0 214
-0.0515714 0.0214832 0.934184 32 3 217
-0.00989841 0.0205154 0.120225 44 42 211
0.0806391 0.077841 0.931653 15 26 217
-0.131943 0.141565 0.945914 37 34 213
-0.0497849 0.195629 0.935786 14 47 214
-0.0476715 0.192462 0.918452 14 47 214
0.155825 -0.0628925 1.15051 28 15 217
0.181615 0.00517702 1.13917 34 0 217
0.00564367 -0.0196191 0.930862 16 11 218
0.0504827 -0.0490784 0.986927 1 21 218
0.119177 -0.047619 1.06088 23 17 217
0.111882 0.0831663 1.04206 20 21 217
0.0927054 0.0168095 0.984183 18 2 219
-0.0166095 -0.0375159 0.957636 23 17 217
0.0854304 0.0877812 0.980012 14 26 217
0.131794 -0.0883677 1.16219 23 25 217
0.0845137 0.0856898 0.920937 15 26 217
0.210493 0.153386 1.18637 44 37 212
0.0113215 -0.046152 0.984208 3 13 219
-0.0158484 0.0138487 0.280888 25 10 218
-0.0560008 -0.108647 0.997618 17 27 217
-0.03761 -0.0806516 1.07209 11 18 218
0.141252 -0.0889222 1.17974 25 26 216
0.0961097 -0.098235 1.16628 14 30 217
0.0819635 0.106419 0.926503 15 34 216
-0.221009 -0.114581 1.05847 52 25 212
0.173865 -0.0618978 1.15786 34 18 216
-0.0666785 -0.0398858 1.07573 26 12 217
0.0308774 -0.0436911 0.975466 5 20 218
-0.194556 0.136418 1.0241 49 30 212
-0.0959274 -0.0134435 0.760434 33 5 217
0.147986 0.0768408 1.21258 26 15 217
-0.132983 0.149217 0.590234 50 53 207
-0.109715 0.0111452 0.905767 29 2 217
0.0515105 -0.0491807 1.00201 1 23 218
0.0310818 -0.0457178 0.947224 9 26 218
-0.143721 0.127585 0.675889 48 40 210
0.0494662 -0.0229867 0.929242 1 14 219
-0.116854 0.116699 0.714258 39 35 213
-0.236168 -0.0191197 0.921302 57 4 212
0.204101 -0.0565309 1.15142 41 15 215
-0.00364998 -0.0550674 0.985812 17 24 217
-0.0700608 -0.0671334 1.03483 37 26 214
0.188715 -0.0703452 1.14117 37 19 215
-0.0976228 -0.000146923 0.958576 37 1 216
0.183472 -0.0570478 1.07347 37 15 216
0.266399 0.000330558 1.06699 55 1 212
0.190234 0.0133443 1.21456 36 0 216
-0.0610714 -0.000379735 0.948189 42 5 215
-0.0928697 -0.0737765 1.0362 35 22 215
-0.0649191 -0.0421312 1.02059 25 13 217
0.0930567 -0.0739985 1.15652 14 19 218
0.23496 -0.0536682 1.17849 49 16 213
-0.213422 -0.0943641 1.04733 50 21 213
-0.0399569 -0.0852671 0.971411 14 21 218
-0.154088 0.136948 0.7625 51 40 209
-0.112111 0.00618855 0.945876 41 0 215
-0.230099 0.145542 1.03948 53 31 211
-0.208947 -0.0937965 1.03798 53 22 212
0.0794184 0.0447149 0.922138 16 11 219
0.010445 -0.049149 0.980794 4 15 219
0.0934303 0.0875579 0.977321 17 24 217
-0.0945876 0.0424275 0.971005 44 10 215
0.0819698 -0.101498 1.16043 10 28 217
0.0908983 0.0752162 0.958155 17 19 218
0.12815 -0.0391042 1.0341 26 8 218
-0.0038691 -0.0812621 0.981384 7 22 218
0.0048362 -0.0905927 1.00128 3 23 218
-0.0276922 0.206639 0.915862 8 49 214
0.0508359 0.22463 0.897623 10 54 212
0.078595 0.121137 0.925979 14 36 216
-0.160324 0.138844 0.987604 51 35 210
-0.214703 -0.0653769 1.05425 54 15 212
-0.115085 -0.0694776 1.0368 35 18 216
-0.132374 0.132033 0.767193 39 37 213
-0.147702 -0.0626281 1.058 40 15 215
-0.13259 0.132517 0.803742 38 35 213
0.163245 0.0225374 1.12699 32 3 217
-0.0506998 0.0625134 0.943004 38 19 215
0.167375 0.102876 0.737999 52 38 210
0.0959513 0.126634 0.977243 18 42 215
0.0296784 -0.0498038 0.981229 5 23 218
0.0180646 0.134382 0.967017 0 32 217
-0.190576 0.132153 0.987738 45 29 213
-0.0899422 0.0405858 0.954925 32 9 217
-0.0602776 0.0182399 0.940876 26 3 218
0.00223322 -0.0336951 0.970341 13 15 218
0.210121 -0.0562677 1.16204 42 16 215
0.024739 -0.0583908 1.02968 3 20 218
0.168501 0.104709 1.19079 30 20 216
-0.121804 -0.0745831 0.987561 36 20 215
-0.123718 -0.082243 1.00035 36 22 215
0.15731 -0.0564045 1.15683 28 13 217
-0.145421 -0.0623089 1.04492 38 15 215
-0.12178 -0.0292649 1.0142 35 8 216
-0.162317 0.120242 0.982954 42 27 213
-0.211143 -0.0332402 1.10885 43 6 215
0.00901759 0.19665 0.964432 0 45 215
-0.167647 -0.0703332 1.0506 44 17 214
0.076937 0.122039 0.940438 13 33 216
-0.0549541 -0.0595155 0.99908 26 20 217
-0.0940946 -0.0651121 1.02046 27 16 217
-0.138397 0.107646 0.954759 42 27 214
-0.067928 -0.0567454 1.02757 28 18 217
0.025301 -0.0508234 0.997477 0 15 219
-0.116536 -0.0711464 1.04664 39 20 215
-0.0343568 0.153433 1.02136 18 38 215
0.0483269 -0.0524682 0.988696 5 16 219
0.0855793 0.0388036 0.962901 15 9 219
0.05866 -0.0732466 1.089 7 20 218
0.0625503 0.235399 0.933078 12 55 212
0.139738 -0.00484197 1.20213 24 2 218
0.0501529 -0.0242124 0.966694 6 8 219
-0.213978 -0.0605097 1.05993 48 13 214
-0.217231 -0.0395143 1.05198 47 8 214
-0.135935 0.239147 0.955874 32 53 210
-0.235191 -0.0476556 1.0316 51 10 213
-0.0865756 -0.0627405 1.0316 38 21 215
-0.0945796 0.0080391 0.948546 39 0 216
-0.130418 0.14167 0.937672 36 34 213
-0.00675087 -0.0784439 0.988284 8 21 218
-0.190372 -0.0570507 1.0401 44 13 215
0.182273 -0.0534192 1.12953 36 14 216
-0.107802 0.030759 0.945836 39 7 216
-0.0188129 -0.0724644 0.974994 15 23 217
0.0589881 -0.00812011 0.930858 7 5 219
0.0259011 0.135868 0.976308 3 38 216
-0.0112497 0.0420751 0.957634 19 10 218
0.00324793 -0.0968788 1.03854 8 27 218
-0.0618486 0.0448144 0.945684 31 11 217
0.139707 -0.00477973 1.20319 24 2 218
-0.0207092 -0.0515848 0.981218 17 18 218
-0.0222526 0.0265704 0.936875 22 5 218
0.0539937 -0.0650939 1.04981 6 18 219
0.0821583 0.105069 0.92015 14 31 217
0.162903 -0.0617193 1.19994 31 20 216
0.223576 0.102635 1.11919 50 25 212
0.192697 -0.0939038 1.14713 40 28 214
0.170238 -0.093307 1.20021 31 25 216
0.195442 -0.0649501 1.16471 38 19 215
-0.0105358 0.0312405 0.911052 11 7 219
0.270339 -0.0866217 1.1488 52 18 212
-0.0236409 0.182871 1.01092 12 44 214
-0.104749 -0.0790755 1.04468 35 22 215
0.0668343 -0.0231682 0.90492 7 14 219
0.0173253 -0.0401062 0.965156 11 18 218
0.165364 0.0221347 1.13629 33 2 217
0.0530563 -0.107141 0.990806 8 26 218
0.132956 -0.0540132 1.16846 23 13 218
-0.175883 0.127431 0.93603 48 31 212
-0.12808 0.135543 0.942636 41 35 213
-0.0927944 0.202189 0.933151 23 47 213
-0.0403265 -0.0792674 0.994043 18 22 217
-0.0933679 -0.0787053 1.04234 31 21 216
-0.138475 -0.0577557 1.0363 37 14 216
-0.0284782 0.213381 0.891424 9 52 213
-0.0789895 0.202307 0.932468 21 47 213
-0.103718 0.22849 0.944663 26 52 211
-0.222119 -0.0536449 1.05621 47 11 214
-0.0984661 -0.0249574 1.01804 30 7 217
-0.170131 0.121123 0.984779 46 28 212
-0.129501 0.10327 0.942479 36 25 215
-0.0571855 -0.0741939 1.01409 21 20 217
-0.0846226 0.0275819 0.944618 31 6 217
-0.0879178 -0.0430908 1.02559 28 12 217
-0.0470838 0.194875 0.906 15 49 213
-0.0931653 0.232421 0.947549 23 53 212
-0.0973243 0.132469 0.947378 32 33 214
-0.137772 0.104083 0.946924 35 24 215
-0.0574744 0.0299268 0.946091 27 6 217
-0.0860435 0.027657 0.954811 31 6 217
-0.195835 -0.0541359 1.04935 49 12 213
-0.101467 -0.0639217 1.02895 32 17 216
-0.0612691 0.0443678 0.945229 26 11 217
-0.0402418 -0.0789303 0.992418 18 22 217
-0.209132 -0.0627651 1.02443 46 13 214
-0.0282693 0.210786 0.881038 9 53 213
-0.0706222 0.188262 0.867334 20 48 213
-0.113633 0.212291 0.961061 28 48 212
-0.101716 -0.0637296 1.0304 33 17 216
-0.11929 -0.0636573 0.977505 32 15 217
-0.10982 -0.0710633 1.03899 32 18 216
-0.0937424 0.00520223 0.945236 32 0 217
-0.112712 0.00621967 0.949419 31 0 217
-0.127706 0.135373 0.942595 39 34 213
-0.136014 0.103813 0.939725 38 25 214
-0.0895086 0.0402217 0.950217 33 9 217
-0.0595341 0.18908 0.944909 18 45 214
-0.0681674 -0.0562664 1.02697 25 16 217
-0.0891962 -0.0574263 1.02884 32 17 216
-0.129819 0.103504 0.944203 35 24 215
-0.0847777 0.230719 0.923798 22 54 211
-0.206011 0.148423 1.11284 44 29 213
-0.128306 0.221132 0.999644 30 48 212
-0.0688099 0.183928 0.847987 21 48 213
-0.0963686 -0.00126197 0.956767 33 1 217
-0.166605 -0.0436725 1.03902 37 9 216
-0.0317159 0.1465 0.987608 13 35 216
-0.0858857 0.18412 1.00403 26 43 213
-0.0915538 -0.0639427 1.03336 33 19 216
-0.0216343 -0.040507 0.969165 14 13 218
-0.0734358 -0.056112 1.03079 26 15 217
-0.107296 0.213951 0.975415 27 48 212
-0.0327363 0.216345 0.909677 9 52 213
-0.0218994 0.186911 0.884819 7 47 214
-0.0491865 -0.017409 0.993632 18 5 219
-0.0597071 -0.0620409 1.01387 27 21 216
-0.170535 0.142053 1.04721 38 29 214
-0.0130694 0.208311 0.935767 5 49 214
0.209943 0.20542 0.877897 50 50 208
0.192873 0.224186 1.0487 38 46 211
0.233822 0.0184977 1.16037 46 2 215
0.221412 0.0183381 1.15156 44 2 215
0.186116 0.215649 1.01023 38 46 211
0.233201 -0.00216628 1.13798 46 2 214
0.074481 -0.0746176 1.17547 7 23 218
-0.0667691 -0.0649033 1.03092 31 22 216
0.0656207 -0.0235875 0.939034 7 14 219
0.041827 -0.0659675 1.00486 2 24 218
-0.0537554 -0.0438982 0.993838 22 15 217
-0.145679 0.131668 0.622864 52 45 208
-0.235065 -0.0252794 1.01043 52 5 213
-0.140815 0.156197 0.80839 40 42 212
-0.227749 -0.0930845 1.04588 53 20 212
-0.25467 -0.0444745 1.0189 55 9 212
-0.147341 0.132262 0.610877 53 46 208
-0.171428 0.132252 0.719195 53 39 209
-0.145053 0.133151 0.601199 54 47 207
-0.0212436 0.0224562 0.156931 43 32 212
-0.148332 0.107611 0.805367 43 29 213
-0.122151 0.150062 0.779542 36 41 212
-0.136383 0.137825 0.597333 51 49 208
-0.139027 0.126898 0.597336 52 45 208
-0.258413 0.131204 1.03085 55 27 211
-0.182788 0.121972 0.793123 52 32 211
-0.187591 -0.0300345 0.986526 43 6 215
-0.139093 0.141057 0.609439 51 49 207
-0.183559 0.122623 0.797426 52 32 211
-0.241463 -0.0517028 1.05258 54 11 212
-0.185884 0.124058 0.806796 52 32 211
-0.102913 -0.0159571 0.809919 30 4 217
-0.134767 0.233884 0.914397 33 54 210
-0.164649 0.106302 0.783514 47 29 212
-0.172201 0.119286 0.825315 46 31 212
-0.147305 0.136252 0.764707 50 40 210
-0.187091 0.124846 0.812014 51 32 211
-0.253417 -0.0586676 1.04642 53 12 212
-0.238281 -0.0512737 1.03961 51 11 213
-0.149915 0.12507 0.616837 54 43 208
-0.213347 -0.0643156 1.04558 46 13 214
-0.145135 0.132717 0.600012 54 47 207
-0.00565409 -0.00352019 0.117344 36 14 216
-0.251512 -0.0313638 1.00051 56 7 212
-0.26312 -0.0330582 1.04299 55 7 212
-0.125681 0.134939 0.588551 48 48 208
-0.13535 0.124995 0.586096 51 45 208
-0.0769008 -0.0538778 1.02691 33 18 216
-0.108868 0.0117837 0.91029 34 2 217
-0.00437616 0.0762125 0.550773 4 30 217
0.177679 -0.0731965 1.15519 35 21 215
0.118835 -0.0424182 1.03578 24 15 218
-0.0583742 -0.000291337 0.935731 42 5 215
-0.049606 -0.0141291 0.94353 37 10 216
0.0914014 0.110511 0.925103 17 37 216
-0.0594628 0.130218 0.952607 40 44 211
0.00907813 -0.0193217 0.948401 3 6 219
-0.121511 0.220935 1.01677 28 48 212
-0.0324725 0.209678 0.886003 10 53 213
0.0611265 0.0072044 0.940911 8 0 219
-0.0104165 0.013218 0.94179 15 1 219
0.220099 0.0966723 1.11425 45 21 214
-0.0167835 0.200338 0.916607 5 48 214
-0.00537218 0.0851708 0.94072 21 28 217
0.073109 -0.0230184 0.950278 10 13 219
-0.0182712 0.0846944 0.929774 28 29 216
0.0119275 -0.0384968 0.975602 8 15 219
0.0313865 -0.0453841 0.965568 0 15 219
0.194097 0.0179239 1.00716 48 2 214
0.196933 -0.0978253 1.16569 41 31 213
0.179452 0.145355 1.11647 38 38 213
0.0559561 -0.0661972 1.05566 2 27 218
0.0642385 -0.0239605 0.959058 6 15 219
0.0231941 -0.0441282 0.980669 9 22 218
0.101709 0.0994839 1.07259 17 27 217
-0.00728937 -0.0633047 0.972757 21 30 216
0.00330006 -0.0208696 0.960182 18 14 218
-0.0377823 -0.030489 0.975462 33 17 216
0.0449225 -0.0693413 1.01842 1 30 217
0.0698346 -0.0208966 0.980802 8 13 219
0.0093137 -0.0202836 0.963006 15 14 218
0.0845469 0.0826311 0.96743 14 26 217
-0.0296956 -0.0369844 0.973292 30 20 216
-0.0097706 0.0404753 0.944895 22 11 218
-0.00867462 0.0241675 0.917148 24 4 218
0.0640787 -0.0236778 0.954069 6 15 219
0.210467 0.00461507 1.17724 46 2 215
0.049696 -0.0282206 0.948667 1 17 219
0.00964907 -0.039218 0.962625 17 21 218
0.00131936 -0.0350708 0.98048 20 19 218
0.00938068 -0.0396289 0.967629 17 21 218
0.00665086 -0.0202562 0.918374 21 14 218
-0.0167147 -0.0552078 0.998403 26 27 216
0.0905686 0.0831002 0.964967 16 26 217
0.0603815 0.00427838 0.898789 3 3 219
-0.0288347 0.0115541 1.00517 31 0 217
0.0544706 -0.000491443 0.641194 0 16 219
0.0509498 -0.0260899 0.92566 0 17 219
0.129203 -0.0487901 1.12921 24 19 217
0.00780247 -0.0196128 0.902825 21 15 218
0.0566029 0.0044338 0.939132 1 3 219
0.0068859 -0.0237729 0.962292 19 15 218
0.0597591 0.00739933 0.857541 5 2 219
-0.0222814 -0.0542429 0.960786 31 27 215
0.0498874 -0.027911 0.946204 1 17 219
0.0498985 -0.0279464 0.946725 1 17 219
-0.00633736 -0.0446021 0.990608 23 22 217
0.102791 -0.0431732 1.0911 16 18 218
0.0497605 -0.0284832 0.952711 1 17 219
-0.0158096 0.038306 0.940146 29 11 217
-0.00865298 0.0132795 0.918217 28 0 218
0.0504819 -0.0258176 0.918139 0 17 219
0.0495557 -0.0278515 0.9436 1 17 219
-0.00877688 0.0132832 0.919536 28 0 218
0.123653 -0.0516437 1.09874 23 17 217
0.165438 -0.0500895 1.13795 33 16 216
0.215985 -0.0640936 1.20801 45 21 214
0.0222214 -0.338923 2.64957 2 32 217
0.0255233 -0.0578406 0.990952 8 24 218
0.076024 -0.00236122 0.872033 12 6 219
-0.0125671 0.014754 0.854647 28 1 217
0.0823582 0.0875119 0.97323 12 27 217
0.0464432 -0.041787 0.857274 1 24 218
0.0822429 0.0873326 0.971528 12 27 217
0.075382 -0.0192695 0.911024 10 12 219
0.0756689 -0.0193795 0.913253 11 12 219
-0.168678 0.13441 0.985399 47 32 212
-0.229593 -0.0942183 1.05466 55 21 211
0.0559116 0.110303 0.929993 7 33 217
-0.108702 0.0168417 0.947554 36 3 216
-0.0109217 0.013592 0.943136 12 2 219
-0.0240205 0.18787 0.952068 13 48 214
-0.164087 -0.0544382 1.04427 44 13 214
-0.228304 -0.0380151 1.05401 56 9 212
-0.203745 0.125695 1.04379 49 27 212
-0.12798 0.14272 0.93196 35 34 214
-0.141389 0.179997 0.967887 44 45 210
-0.0915713 -0.0728419 1.03063 44 27 213
0.0160429 0.129241 0.937105 11 44 215
-0.0468977 0.0847764 0.943307 37 28 214
-0.0530212 0.0164843 0.961664 33 2 217
-0.0240563 0.0151065 0.940708 27 1 218
0.100145 0.0779372 0.979667 19 24 217
0.0965058 -0.0512148 1.20404 12 16 218
-0.0569532 -0.0285093 0.982042 36 14 216
-0.100948 0.0302239 0.947057 35 6 216
-0.196143 -0.0674226 1.05208 50 16 213
-0.13729 0.13566 0.945677 41 34 213
-0.0611591 0.0379151 0.944978 32 9 217
0.0517775 -0.0310921 0.984271 5 11 219
-0.162673 -0.0643575 1.04263 51 18 212
-0.155808 -0.0512526 1.03774 44 13 214
-0.163532 -0.0639403 1.0453 51 17 212
-0.0103643 0.0424061 0.955334 16 10 218
0.0950402 0.0896378 0.991154 17 23 218
0.057631 0.0064711 0.954775 8 0 219
0.0695229 -0.0199004 0.954115 11 8 219
0.0795919 0.0763977 0.923999 15 22 218
0.05239 0.124682 0.931741 6 34 217
-0.0232402 -0.0707078 0.984022 13 20 218
0.0529041 -0.0616655 1.00332 0 28 218
0.00983919 -0.0170382 0.89098 16 12 218
0.0343056 -0.0725344 1.23251 4 23 218
-0.0701721 -0.0864429 1.33722 28 23 216
0.0839831 0.106369 0.932009 13 39 215
0.0280571 -0.0514 0.939955 10 27 217
0.0538791 -0.0222555 0.907946 2 14 219
0.0268951 -0.0525276 0.963115 7 23 218
0.0263996 -0.0493984 0.965053 10 25 218
0.175568 0.0748983 0.913968 53 26 211
0.0643329 -0.00911546 0.947814 5 10 219
-0.0142659 -0.016256 0.936655 30 14 217
0.0303065 -0.0415166 0.979098 8 23 218
0.063882 -0.00854001 0.938081 5 8 219
0.0639731 -0.00834384 0.940408 6 8 219
0.0487776 -0.0148429 0.772789 2 21 218
0.030544 0.00290046 0.636049 33 18 216
0.0437493 -0.039332 0.940962 4 25 218
0.183246 -0.0537961 1.1427 38 18 215
0.142216 -0.0544449 1.15722 25 13 218
0.230745 0.0978871 0.871619 58 25 210
0.178799 0.107072 0.777874 49 30 212
-0.147252 -0.0888597 0.980049 43 23 214
-0.0516744 -0.0875971 0.978191 17 22 218
-0.16026 -0.0963605 1.06632 36 21 215
-0.0211849 -0.0738505 0.988393 15 22 218
-0.00148091 -0.0374891 0.977711 8 12 219
-0.0281453 -0.0519989 0.950428 16 17 218
-0.0245485 0.0648006 0.936436 21 18 218
0.0613755 -0.115039 1.09351 7 28 217
-0.200598 -0.0581199 1.02226 45 12 214
-0.0906434 0.126171 0.911488 34 34 214
0.266037 0.00789697 0.91869 65 0 209
0.236223 0.00108365 0.956957 55 1 212
0.210489 0.172203 0.935443 50 46 209
-0.0766159 -0.0353393 1.01159 39 14 215
-0.195358 -0.0544362 1.04708 50 13 213
-0.215909 -0.0409745 1.04657 50 9 213
-0.154622 -0.0718252 1.04027 40 17 215
-0.154011 0.103632 0.77084 46 29 213
-0.0620801 0.117825 0.912193 20 29 217
0.0335193 0.118777 0.881193 4 31 217
0.220333 0.0453098 1.14978 46 8 214
0.250996 0.0884513 1.11507 51 18 212
0.17163 0.162077 1.10297 33 36 214
0.0616996 0.00969412 0.936567 9 0 219
0.0707274 -0.10003 1.15767 8 25 218
0.0613947 0.00957962 0.935782 9 1 219
-0.00282895 -0.0824224 0.982764 12 28 217
0.0605806 -0.0728426 1.11903 4 25 218
0.225081 0.0129021 1.18105 45 0 215
0.25433 0.0893717 1.12971 52 18 212
0.051904 -0.0568628 0.993642 4 23 218
-0.133082 0.0112571 0.943208 58 1 211
-0.129135 0.0205972 0.961169 54 4 213
-0.0541425 -0.090052 0.99607 20 24 217
-0.0889062 -0.0601661 1.02977 28 16 217
0.0819827 -0.00109638 0.962245 13 1 219
-0.0285359 -0.0293137 0.831285 38 22 215
0.0533006 -0.0641575 1.02909 2 27 218
0.144301 -0.0904501 1.20029 26 28 216
0.0857252 0.0888113 0.939906 16 28 217
0.0277637 -0.00525217 0.683036 29 24 216
-0.0540403 -0.0547739 1.11388 37 24 215
0.0189219 -0.0112969 0.843046 21 17 218
0.230969 0.0960614 1.11403 51 23 212
0.231105 0.0965728 1.11466 47 21 213
0.0458643 -0.077196 1.14995 1 23 218
-0.0262424 -0.0106462 0.894178 42 14 215
0.0562014 0.00939862 0.573505 3 19 218
0.0678994 -0.0182764 0.915113 11 7 219
0.0204703 -0.00921302 0.81339 22 17 218
-0.00407379 -0.0387485 0.99004 11 14 219
0.100786 0.0566448 0.457047 52 39 209
0.219825 0.183833 0.88321 52 45 208
0.171043 0.211655 0.857135 41 54 209
0.195331 0.0747248 0.846502 49 19 213
0.210236 0.0723844 0.904507 50 17 213
0.207956 0.0715026 0.896878 50 17 213
0.247175 0.152983 0.929571 58 38 208
0.156053 0.108269 0.721958 47 34 211
0.22006 0.0549438 0.896808 53 13 212
0.237328 0.198942 0.953301 52 45 208
0.167144 0.194502 0.934061 38 46 211
0.175069 0.197732 0.991751 37 44 212
0.174975 0.200365 0.947019 39 46 211
0.206807 0.195555 0.905483 48 46 209
0.27493 -0.0884686 1.16812 51 18 213
0.241813 0.223849 1.06094 48 45 209
0.236161 0.099466 1.12558 47 21 213
0.22013 0.0757067 0.945746 51 18 212
0.222482 0.0847119 0.959552 50 19 213
0.276518 -0.0891872 1.1761 51 18 213
0.184228 0.0776143 0.872515 45 19 214
-0.0784399 -0.0507326 1.0341 26 13 217
-0.0144343 0.196971 0.98423 6 45 215
-0.00675698 0.226081 0.907998 3 55 212
-0.015566 0.0133131 0.27539 28 9 217
-0.00396974 -0.0828557 0.98946 9 24 218
-0.0867696 0.211581 0.984703 23 48 213
-0.113942 0.209722 0.967566 29 48 212
0.0803191 0.226951 0.903044 17 55 212
0.0499186 0.222011 0.890226 10 54 212
0.0431965 0.231011 0.944097 8 54 213
0.0884914 -0.0421213 1.08544 13 16 218
0.0194892 -0.0114297 0.846168 21 17 218
0.146429 0.074069 1.18817 26 15 217
0.0364114 0.124007 0.92661 0 38 216
0.174147 -0.0616838 1.15796 34 18 216
-0.0552681 0.0376391 0.919965 42 10 215
-0.0117779 0.0580523 0.919013 21 17 218
0.112892 -0.0558927 1.15874 18 15 218
0.185496 -0.0586844 1.09548 36 15 216
0.0884186 0.125618 0.938575 17 34 216
-0.165408 0.128056 0.988092 52 32 211
0.0516701 -0.0310035 0.985233 6 10 219
-0.0147987 0.0209034 0.69452 22 6 218
0.0495745 -0.0242858 0.961311 5 9 219
-0.00973908 -0.0664241 0.984212 12 21 218
0.00943618 0.116861 0.933103 7 33 217
0.0930164 0.0745928 0.969746 17 19 218
0.0993214 0.0782075 0.985833 19 20 218
0.0931028 0.0764012 0.979769 17 19 218
0.0398008 0.0871619 0.956012 1 24 218
0.170682 0.101614 1.19864 30 20 216
-0.0614027 0.0847671 0.949574 39 26 214
-0.0376882 0.0447326 0.943332 28 12 217
0.0364547 0.124028 0.926419 2 41 216
-0.0251532 0.0280225 0.957105 25 5 218
0.144902 0.107236 1.2212 25 23 217
0.100288 0.0998764 0.971008 19 33 216
-0.122941 -0.0794565 0.986201 51 27 211
0.0994892 0.0832468 0.958869 19 26 217
-0.0681411 0.0191224 1.02178 33 3 217
0.083284 0.108705 0.93866 13 35 216
0.0994749 0.0831385 0.958193 19 26 217
-0.00317338 -0.0380954 0.970155 18 19 218
0.0825804 0.103075 0.916655 14 36 216
0.153398 0.113905 1.26295 25 22 217
0.144 0.0293967 1.20142 25 4 218
0.0567673 0.00352422 0.965786 1 4 219
0.0449597 -0.0616116 1.00439 1 26 218
0.0698095 -0.0182227 0.952849 8 12 219
0.0289973 -0.0521996 1.00529 1 17 219
0.0709143 -0.00110355 0.805292 14 7 219
0.0924037 0.11093 0.930981 18 36 215
0.117671 -0.0519532 1.15573 20 19 218
0.0711963 -0.00113621 0.808623 14 7 219
0.11678 -0.0450195 1.18572 19 13 218
-0.165039 -0.042465 1.03203 44 11 214
-0.03846 -0.0774769 0.979783 25 27 216
-0.119146 -0.0242555 1.00157 44 8 215
0.0790292 0.0770504 0.930043 14 23 218
-0.122707 -0.0603408 0.999736 39 16 215
-0.116329 -0.0369226 0.979965 45 12 214
0.143243 -0.0911768 1.20092 25 24 217
0.244037 0.106287 1.1596 54 25 211
0.193222 -0.0666544 1.16101 41 23 214
0.233397 0.10726 1.15043 54 27 211
0.221695 0.0969249 1.1271 51 24 212
0.232588 0.102475 1.11463 55 26 211
0.174067 0.102591 1.19652 35 25 215
0.234425 0.102754 1.17484 51 24 212
-0.0105228 0.013004 0.943398 18 1 219
0.168029 0.156602 0.992573 35 41 212
-0.0666874 0.0840844 0.942685 32 23 216
-0.166104 0.128816 0.990269 54 33 210
0.0480851 -0.0677143 1.01858 5 19 218
0.0550589 -0.0256117 0.972198 6 9 219
-0.0227936 -0.0417741 0.978572 30 23 216
0.0372869 -0.0617863 1.02165 3 27 218
0.167652 -0.0922752 1.19363 30 22 216
0.0215168 -0.00842099 0.80142 22 17 218
0.0229095 -0.00866942 0.806705 21 17 218
0.0228511 -0.00444109 0.755124 25 17 217
0.00480648 -0.0304232 0.819626 32 30 215
0.0220588 -0.00510369 0.763418 25 17 217
0.0426975 -0.00458356 0.665303 14 26 217
0.0383581 -0.0540623 1.01204 1 18 219
0.015561 -0.0454846 0.983472 4 15 219
0.0864273 0.118191 0.921156 17 33 216
-0.0146935 0.0331109 0.938369 9 7 219
0.278584 -0.0865407 1.175 51 18 213
0.270983 -0.0835098 1.14076 52 18 212
0.238737 0.0190087 1.18168 46 2 214
0.23452 0.00880456 1.14992 44 0 215
0.13621 -0.0950599 1.16215 24 24 217
-0.0890952 -0.0475321 1.02725 35 16 216
-0.0473401 0.126603 0.93786 25 37 214
0.222722 0.0899905 1.14436 45 19 214
0.208836 0.00607074 1.1596 42 1 215
-0.0693305 -0.056022 1.03684 33 20 216
0.289356 -0.0241233 1.15265 55 6 212
0.29687 -0.0575862 1.17148 56 12 212
0.267377 0.000202274 1.07568 55 0 212
0.311016 -0.0608544 1.22086 56 12 212
0.245506 0.0484921 0.911365 61 11 210
0.286714 -0.119495 1.15604 55 25 211
-0.0573262 -0.0629109 1.02055 26 20 217
-0.0558249 -0.107085 0.992895 20 28 217
0.063318 -0.00786519 0.934002 10 4 219
-0.0882823 -0.0497635 1.02611 34 15 216
0.0650064 -0.115038 1.10254 8 29 217
0.16443 -0.0822274 1.13292 31 21 216
0.226803 0.0914879 1.16109 45 19 214
0.25251 0.101861 1.12416 57 24 210
0.250327 0.100886 1.11485 55 23 211
0.19425 -0.0636328 1.15399 39 19 215
0.206223 0.158975 1.1071 42 39 212
0.188342 0.157029 1.04252 40 41 212
0.193819 0.145348 1.00372 46 42 210
0.190821 0.159479 1.05551 42 43 211
0.198247 0.155617 1.0709 42 40 212
-0.0336327 0.0387407 0.943449 19 9 218
-0.076849 -0.036998 1.09432 30 12 217
0.0936581 0.105879 0.948226 19 31 216
-0.0740878 -0.0613488 1.02874 29 18 216
0.0544004 -0.000437081 0.638991 0 16 219
0.129614 -0.0490504 1.13283 24 19 217
0.0590371 0.00469611 0.857103 3 4 219
0.000772408 -0.0354567 0.98733 20 19 218
0.198434 -0.0942285 1.16887 37 23 215
-0.0219261 -0.0399329 0.976813 15 13 218
-0.228602 -0.113203 1.05485 54 25 211
-0.122786 0.21689 1.0292 33 49 211
-0.128222 0.127355 0.775766 45 38 211
-0.0257662 0.173594 0.983618 11 42 215
-0.0557851 0.12637 0.934553 25 35 215
-0.207755 -0.0936055 1.03462 49 21 213
-0.161096 -0.0646607 1.03786 41 15 215
0.0103577 0.234595 0.944745 0 54 213
-0.111072 0.0242288 0.964459 30 5 217
0.0488023 0.208947 0.848982 10 54 212
-0.0915837 -0.0633622 1.03361 27 16 217
-0.115242 -0.0706478 1.03833 33 17 216
-0.098332 -0.0255822 1.01318 31 7 217
-0.10091 -0.0201469 0.862691 29 5 217
0.00998666 0.191835 0.937025 0 46 215
0.0830034 0.0178903 0.911001 16 2 219
0.0570251 0.00409178 0.995652 1 3 219
0.00113051 -0.0351274 0.982349 20 19 218
-0.0139477 0.0371202 0.855172 29 11 217
0.0288515 -0.0510233 0.989548 9 25 218
0.19036 0.00581529 1.20006 36 0 216
-0.00812785 -0.0466734 0.906548 28 27 216
0.0643965 -0.0249236 0.960069 10 10 219
-0.0287222 0.0116209 1.004 31 0 217
0.0497504 -0.0626856 1.02889 4 20 218
-0.0361132 0.185124 0.924239 13 46 214
0.00938114 -0.0354895 0.965724 4 12 219
0.013556 -0.0237554 0.992996 9 12 219
-0.127772 0.0205578 0.957451 52 4 213
-0.055231 -0.108439 0.993735 20 28 217
0.026221 -0.0420705 0.979006 1 14 219
0.0949779 -0.132261 1.10461 15 29 217
-0.0107693 -0.0678448 1.00288 11 20 218
-0.168241 0.133565 1.00715 45 31 212
-0.0111163 0.0329109 0.93964 13 7 219
-0.0975038 -0.0244915 1.00965 31 7 217
-0.0234398 0.136506 0.975599 11 34 216
0.0354199 -0.071452 1.03629 2 19 219
-0.0266367 0.194724 0.987503 10 45 215
0.0529485 -0.106989 0.989262 7 27 218
-0.0234884 0.129138 0.937678 12 33 216
-0.178336 0.134742 1.00969 44 30 213
-0.0106927 0.0338851 0.946411 11 8 219
0.00277384 -0.0343328 0.973396 7 11 219
-0.0659648 -0.0533912 1.00687 24 15 217
-0.219676 -0.0408588 1.05953 51 9 213
-0.213992 -0.0392739 1.0363 54 9 212
-0.216748 -0.0397269 1.04907 54 9 212
-0.00984868 0.190194 0.920571 6 46 214
-0.145294 -0.0869376 0.980397 46 24 213
0.0201197 0.016854 0.223492 10 32 216
-0.0317936 -0.0348805 0.972549 25 15 217
0.0837113 0.062221 0.967925 14 17 218
-0.0273916 -0.0633046 0.975474 21 22 217
-0.135771 0.0357507 1.19399 33 6 217
0.0789629 0.122118 0.931242 13 36 216
0.0590068 -0.00870133 0.933671 7 5 219
0.172227 -0.0477373 1.14683 33 13 217
0.281548 0.282241 1.33825 44 49 209
0.186708 0.149897 0.838131 49 46 209
0.136849 0.174455 1.0172 26 43 213
-0.0676156 0.0843655 0.946463 29 22 216
-0.0476095 0.125804 0.934342 26 37 214
0.0979046 -0.0739635 1.17231 15 19 218
0.170515 0.10159 1.18253 33 23 216
0.189767 0.00658759 1.19623 38 1 216
-0.00668753 0.0132857 0.913625 21 0 218
0.0511391 -0.0496898 1.00275 2 20 218
-0.0361232 0.0181583 0.930285 29 2 217
-0.0098174 -0.0558706 0.983798 15 20 218
0.0575841 0.121716 1.00042 5 33 217
0.191402 -0.0550842 1.11153 44 22 214
0.146333 -0.0937963 1.22196 25 27 216
-0.0492235 0.0426184 0.948699 36 11 216
-0.00407542 -0.0553855 0.992153 14 21 218
-0.0733826 -0.058455 1.056 41 25 214
0.245457 0.0863105 1.12438 52 19 212
0.0794131 0.0475644 0.908079 13 14 219
0.01069 -0.0385412 0.980147 14 20 218
0.0361984 -0.0717794 1.03371 3 18 219
-0.0669616 -0.0804538 1.03375 23 21 217
-0.0230796 0.0268544 0.943923 12 6 219
-0.0520372 0.174159 0.905505 17 44 214
-0.0263723 0.190938 0.972123 10 45 214
-0.0956821 0.140297 0.957729 25 32 215
-0.21883 -0.0648262 1.06445 49 14 213
-0.195345 -0.053346 1.04608 48 12 214
-0.0230639 0.0273633 0.944105 16 6 219
-0.0224018 0.0628526 0.918483 16 17 218
-0.0197273 0.0846384 0.928781 14 22 218
-0.0586589 -0.112235 1.02404 19 27 217
0.0603321 -0.113389 1.07099 8 27 218
-0.0640173 -0.0762187 1.03889 25 22 217
-0.16245 -0.0646154 1.04286 44 16 214
-0.133232 0.124155 0.782161 46 37 211
-0.0101947 0.0416049 0.947094 12 10 219
-0.0257528 0.175954 0.994205 12 42 215
0.0369305 0.124329 0.926939 2 35 217
0.0292244 0.15514 0.984019 2 37 216
-0.230664 -0.113696 1.06339 55 25 211
0.0301448 -0.0405985 0.976078 0 14 219
-0.102975 0.226687 0.938956 26 52 211
-0.0562495 -0.0919515 1.0175 20 24 217
0.0343323 0.21612 0.99225 5 48 214
-0.10895 -0.0781769 1.05719 29 18 217
0.0929836 0.207923 0.879345 21 52 212
-0.125772 -0.0822053 1.00158 39 22 215
-0.040721 -0.0796546 1.00074 17 21 218
-0.107232 0.0300192 0.941519 31 7 217
-0.0530636 -0.0836641 0.998555 21 23 217
-0.124331 -0.081116 0.991188 38 22 215
0.0905929 0.202274 0.858512 20 52 212
0.0631813 -0.0231669 0.940178 10 9 219
0.0831804 0.0842065 1.00689 12 25 218
0.0733079 -0.0720192 1.16227 10 18 218
0.084967 0.0639577 0.959605 14 18 218
0.0838827 0.0493007 0.928129 15 13 218
-0.16224 -0.236433 2.58005 19 23 217
0.0153682 -0.0209923 0.946157 8 11 219
0.0366779 0.123826 0.924749 2 34 217
-0.0442061 0.130887 0.944331 27 39 214
0.160029 0.159488 1.0867 31 39 213
-0.192757 -0.0683655 1.04778 54 17 212
-0.0309425 0.0218142 0.944495 22 4 218
-0.119887 0.0435103 0.959098 46 10 214
-0.0873059 0.0281381 0.962136 39 6 216
-0.0385796 0.0853598 0.953777 22 23 217
0.0357936 -0.071947 1.03789 2 19 219
-0.030536 -0.0376431 0.980802 15 11 219
0.171663 0.155138 1.00298 36 37 213
0.221774 0.135128 0.985742 49 31 212
0.149277 0.149119 1.00808 31 35 214
0.173105 -0.0616309 1.15573 32 15 216
-0.055163 -0.043933 1.02778 23 13 218
0.162992 0.163577 1.10734 31 37 214
0.0921231 0.126274 0.926541 16 36 216
0.0918498 0.124785 0.920012 17 37 215
-0.141478 -0.0199482 1.01609 52 7 213
-0.000832821 0.127443 0.943979 12 38 216
-0.141266 -0.0196129 1.01474 49 7 214
-0.164196 -0.0546792 1.0465 52 15 212
-0.00849236 -0.0768697 0.98585 15 26 217
-0.0108213 -0.0796404 1.01134 16 27 217
-0.0104051 0.042706 0.958635 19 10 218
0.017386 -0.0366763 0.985172 2 11 219
-0.0137679 0.0247153 0.972585 16 4 219
0.20366 -0.094356 1.1981 39 26 214
-0.0366108 0.0426887 0.970973 20 10 218
-0.0290402 -0.0160367 1.00648 11 4 219
-0.0352234 0.041664 0.9541 20 10 218
0.017001 0.131516 0.955546 2 34 217
0.229912 0.0985065 1.11208 52 23 212
0.229553 0.0985811 1.11128 53 24 211
-0.0576408 0.0243814 0.939647 25 5 218
-0.0139063 0.220786 0.853478 5 56 212
-0.0846081 0.229944 0.892378 22 56 211
-0.0237134 -0.058815 0.987887 13 17 218
0.0150087 0.216179 0.97397 1 49 214
-0.139971 -0.0523604 1.02919 33 12 217
-0.113606 0.212976 0.962876 28 48 212
0.0521137 0.220918 0.88296 11 55 212
0.0792258 0.225853 0.891478 17 55 212
0.0874755 0.225038 0.894524 19 54 212
0.0197207 0.229799 0.890164 2 56 212
0.087683 0.225982 0.8986 19 54 212
-0.116675 -0.0610447 1.04384 37 16 215
0.0430529 0.230307 0.941262 8 54 213
-0.155374 -0.0713776 1.04481 42 17 214
-0.101631 -0.0645834 1.03214 32 17 216
0.0651234 -0.025192 0.962486 10 9 219
0.0993258 0.0779407 0.979212 19 21 217
-0.109305 0.0226462 0.946277 53 4 213
-0.0630551 0.0486298 0.947288 32 12 217
0.0611903 -0.110329 1.05327 5 32 217
-0.00890988 -0.0559208 0.983917 13 20 218
0.071855 0.120929 0.921467 12 37 216
0.0574951 0.00648407 0.942458 6 1 219
0.192575 -0.0914643 1.14065 38 24 215
0.149959 0.108575 1.20666 26 22 217
0.150546 0.0767105 1.21781 26 15 217
0.13908 -0.0538228 1.15914 25 14 218
0.0800095 0.0383707 0.931953 14 9 219
0.069503 -0.0190732 0.952789 11 7 219
0.0818944 0.120768 0.91886 15 33 216
-0.0147073 -0.0514671 0.968569 14 17 218
0.0512988 -0.0668043 1.02572 1 26 218
0.196457 0.003769 1.16932 40 2 216
0.136914 -0.0995019 1.15863 24 24 217
-0.0353616 -0.0325737 0.977406 23 13 217
0.040519 -0.0629766 1.01762 1 21 218
-0.112924 0.0236603 0.9638 48 4 214
-0.0508217 0.0626686 0.944214 31 18 216
-0.100718 0.148238 0.958296 32 37 214
-0.0362943 0.0824803 0.927391 23 24 217
0.0438337 -0.0324863 0.967061 0 14 219
0.0801732 0.101254 0.933959 14 30 217
0.00582047 0.0837237 0.93885 11 25 218
-0.113087 0.00628911 0.95188 39 0 216
0.163408 -0.0641463 1.05613 33 18 216
0.0791192 -0.0983486 1.12689 11 22 218
-0.111403 0.013006 0.948124 46 1 214
0.153551 0.0130035 0.983316 33 1 217
-0.0376501 0.0841745 0.944815 25 24 216
0.0841855 0.0861627 0.9392 15 25 217
0.0831013 0.0870371 0.944806 14 27 217
0.200237 0.150589 1.06921 48 42 210
0.217768 -0.0497329 1.17862 43 14 215
-0.0914241 0.0288225 0.904378 47 6 214
0.198327 -0.0907439 1.16893 41 27 214
0.201777 0.157274 1.11325 45 41 211
0.202819 0.153198 1.08174 46 41 210
0.142357 0.105282 1.20461 24 22 217
0.0922884 0.117999 0.929124 17 37 215
0.177316 0.0751782 1.23491 31 14 217
0.0905356 0.0767926 0.946848 16 22 218
0.00719497 0.12298 0.922623 12 39 216
0.0915906 0.116721 0.920923 18 38 215
0.0812047 0.0586021 0.927541 15 17 218
-0.0217131 0.127576 0.929782 24 42 214
0.0401105 -0.0645351 1.03093 1 25 218
-0.00707759 -0.0776736 0.984919 15 27 217
0.141983 0.0288547 1.18784 25 4 218
0.0801657 0.0452088 0.93217 15 12 219
0.083612 0.0438291 0.927762 16 11 219
0.0528074 -0.0553212 1.02769 4 20 218
0.080862 0.0572322 0.927715 15 15 218
0.176336 0.0135696 1.13683 34 1 217
-0.0783898 -0.0124387 0.971168 40 8 215
0.0800133 0.0647266 0.823716 18 22 218
0.0832227 0.0436439 0.920594 15 11 219
0.0442807 0.121636 0.926646 3 35 216
-0.107386 -0.0765817 1.03708 33 21 215
0.13458 -0.0919464 1.21824 22 22 217
0.197835 -0.0974271 1.17485 40 30 214
0.193083 -0.0723076 1.15808 37 19 215
0.160927 0.160951 1.09456 34 44 212
-0.0114495 0.0189937 0.94749 23 2 218
0.0665747 -0.0238563 0.943031 7 15 219
0.143013 0.0725851 1.17973 25 14 218
0.0395311 -0.0553749 1.01539 3 23 218
0.0056738 0.0834642 0.937942 9 23 218
0.0765474 0.15797 0.745935 20 47 213
0.0396782 0.0852494 0.938341 3 29 217
-0.0137718 0.0373986 0.954947 13 8 219
0.00814595 0.0973778 0.947046 11 30 217
-0.0613125 0.0374824 0.944312 27 9 217
0.160267 -0.0528447 1.17507 30 14 217
0.17735 0.0170652 1.17064 33 1 217
0.197339 -0.0683893 1.14983 38 16 215
0.0613645 -0.0958177 1.18895 6 24 218
-0.0516043 0.0300166 0.963017 34 6 217
0.170954 0.101239 1.19991 33 23 216
0.162855 0.162897 1.1039 32 40 213
0.172263 -0.0477032 1.14925 33 13 216
-0.0210229 0.0628914 0.931958 24 19 217
0.083396 0.0224771 0.959597 14 4 219
0.0273874 0.126403 0.923099 4 41 215
0.0203988 -0.0464642 0.994019 7 18 219
-0.0574014 0.0242043 0.940309 25 5 218
-0.0761218 -0.0532344 1.02326 32 18 216
-0.0540143 0.0222372 0.941823 31 4 217
0.011826 -0.0252278 1.01317 4 8 219
-0.0118619 0.0158025 0.93222 13 3 219
0.0432065 -0.0328594 0.977865 1 17 219
-0.0243126 0.0148309 0.941585 28 0 218
-0.103399 -0.0781566 1.03271 38 23 214
0.0216566 0.0824857 0.936289 7 26 218
-0.00030524 0.127792 0.944289 13 40 215
0.136537 0.173568 1.01146 26 43 214
0.138037 0.177042 1.02955 26 43 213
-0.101931 -0.0257806 0.770713 54 12 212
-0.115775 0.00654054 0.961555 47 0 214
-0.037256 0.0838537 0.940812 25 24 216
-0.104874 -0.0268039 0.783199 57 13 211
0.135204 0.172198 1.00428 26 43 213
0.244957 0.0869665 1.12647 48 17 213
0.267959 0.214019 1.35922 41 33 213
0.224197 0.137992 0.845607 58 36 208
0.2611 0.00272495 0.957953 59 0 211
0.256128 0.0503558 0.943454 60 11 211
0.264681 0.00171408 0.972369 60 0 211
0.264598 0.0514487 0.974305 60 11 211
0.199744 0.0567953 1.02956 42 12 215
0.182566 0.143654 1.00371 38 32 214
0.286884 -0.0246519 1.14656 55 6 212
0.252134 0.0496429 0.92706 60 11 211
0.259901 0.0510278 0.955396 60 11 211
0.225032 0.0181703 1.16726 44 2 215
-0.0869956 0.202056 0.9445 24 48 213
-0.112549 -0.0750154 0.915348 32 19 216
-0.0297968 0.015239 0.98394 23 1 218
0.271925 0.00837182 0.938519 64 0 210
-0.102309 -0.0424067 1.02212 33 12 216
0.00615917 0.0829819 0.935764 7 23 218
0.0721921 0.00121027 0.795513 11 5 219
0.0720067 0.00141771 0.788366 11 6 219
0.0507938 -0.0277205 0.90878 0 15 219
-0.0731833 -0.0885197 1.36252 28 23 216
0.0344505 -0.0723141 1.22915 4 23 218
0.0562933 0.111596 0.936578 7 32 217
0.200115 0.0869871 1.00812 42 19 215
0.214069 0.0977594 1.07597 43 21 214
0.165342 0.14824 0.960743 36 36 213
0.0363373 -0.0636531 1.02846 0 21 218
0.0505389 -0.0663786 1.0555 1 24 218
0.0453198 0.124803 0.94333 2 39 216
0.0346143 0.127707 0.941482 1 35 217
-0.0153966 -0.0524689 0.981763 13 17 218
0.0117929 -0.0381987 0.976691 4 12 219
0.0810814 0.102993 0.928041 15 30 217
-0.0608404 0.0440859 0.942408 27 11 217
0.211357 0.0528418 0.863611 52 13 213
0.0254331 -0.045042 1.00878 0 12 219
0.169769 0.162297 1.09842 33 38 213
0.221821 0.0807833 0.954898 52 21 212
0.223747 0.0816129 0.962231 53 21 212
-0.118696 -0.023576 0.995932 37 7 216
-0.097323 -0.00977814 0.768181 49 5 214
0.0308453 -0.0405985 0.979194 2 15 219
0.0750431 -0.00394936 0.871778 15 6 219
0.0609007 0.00705756 0.934036 8 1 219
0.0771848 -0.0229845 0.943649 13 11 219
-0.0660506 -0.0400754 1.07036 28 14 217
-0.0329601 -0.00975895 0.895069 35 10 216
-0.0435491 -0.0361063 0.943677 36 21 215
0.0320345 -0.0449219 0.965497 6 23 218
0.0062551 -0.0305233 0.926134 17 19 218
0.0317794 -0.0455047 0.970985 5 21 218
0.0356076 -0.0619915 0.966876 4 32 217
-0.0526418 -0.0356469 0.948057 42 21 214
0.229906 0.096402 1.09799 48 21 213
0.159434 -0.0593017 1.17321 29 17 217
0.169919 0.0712525 1.1802 31 14 217
0.207907 -0.0461716 1.13129 41 12 215
0.188993 0.0039403 1.15326 36 1 216
-0.0247843 0.0650646 0.937272 23 19 217
0.0817673 0.118847 0.918559 16 30 217
-0.0791479 -0.0461415 1.02731 29 14 217
0.0524495 -0.0614707 1.03377 6 18 218
-0.0102193 0.0344128 0.942166 15 8 219
-0.130703 0.145221 0.948094 40 36 212
-0.0980201 -0.0250027 1.01311 32 7 217
-0.109974 0.204874 0.929342 28 48 212
-0.0484999 0.197892 0.919692 14 48 214
-0.0814474 0.190574 0.895965 23 48 213
-0.0890077 0.0400396 0.946726 31 9 217
-0.0147211 0.206134 0.928796 5 49 214
-0.0352025 0.182404 0.911832 11 45 214
-0.0852308 0.183828 1.00076 24 42 214
-0.102863 0.222167 1.03636 23 47 213
0.0956899 0.109975 0.973215 19 29 216
-0.0929947 -0.0738242 1.0376 35 22 215
-0.0153796 0.0274039 0.947473 17 5 219
-0.212622 -0.0595215 1.05307 49 13 213
-0.131612 0.123645 0.778385 46 37 211
0.0307295 0.169547 0.984963 1 42 215
-0.128226 0.127529 0.776076 45 38 211
-0.207393 -0.0936658 1.03239 51 21 212
-0.231293 -0.1141 1.06607 55 25 211
-0.0650656 -0.0763429 1.0453 26 22 216
0.0518991 -0.0674996 1.03912 5 19 218
0.00253199 -0.0344599 0.973139 8 12 219
0.0176579 -0.0368138 0.98661 3 12 219
-0.0204819 0.0161412 0.97255 7 3 219
-0.148041 -0.0600589 1.04288 40 15 215
0.0302177 -0.0400453 0.971609 1 14 219
-0.0284605 -0.0651704 0.986757 16 20 218
0.00288877 0.132975 0.962613 4 32 217
-0.0853636 -0.0268436 1.0001 41 12 215
-0.119355 -0.0624011 1.05709 41 18 215
-0.00311827 0.134885 0.974107 5 32 217
0.00601011 0.0833721 0.936227 9 24 218
-0.0897457 0.0413663 0.946849 34 10 216
-0.0783332 0.198859 0.913462 21 47 213
0.0253658 -0.0572008 1.00256 0 16 219
-0.0565406 -0.0726 0.99323 19 19 218
-0.00273687 -0.0379932 0.984846 5 10 219
0.0167496 -0.040525 0.974248 4 13 219
-0.00380665 -0.0816533 0.982073 9 24 218
0.0253533 -0.0592521 1.02671 1 17 219
-0.0470189 0.190483 0.880698 14 48 214
0.00628712 -0.0186132 0.942524 7 7 219
-0.0484208 0.197192 0.917068 13 47 214
0.0488844 -0.0251351 0.970226 5 8 219
0.0437122 -0.07975 1.16934 7 16 219
-0.0367437 0.0158357 0.931754 16 3 219
-0.00115314 -0.036959 0.96197 9 12 219
-0.00772942 -0.0824372 1.0256 5 19 219
0.0157216 -0.0457338 0.978749 3 14 219
0.289324 0.000202167 1.15685 53 0 213
0.0499474 -0.0312078 0.97468 6 11 219
-0.100128 0.0224726 0.940126 48 4 214
-0.165749 0.13895 0.767809 58 42 207
-0.177172 0.134595 0.992305 47 31 212
-0.0951569 0.147477 0.961116 31 37 214
-0.0846435 0.164816 0.97604 23 38 215
0.238028 0.0827299 1.09459 49 18 213
-0.225945 -0.0918998 1.03648 56 21 211
-0.141452 0.180767 0.969686 43 45 210
0.0911675 0.0763883 0.966918 16 23 218
-0.0193909 0.0258571 0.916929 28 5 218
0.0803249 0.0488932 0.927286 13 14 219
0.0840138 0.0366665 0.9279 14 9 219
-0.145496 -0.0743681 1.04491 41 19 214
-0.0213401 0.0408557 0.940139 18 10 218
-0.0474008 -0.029095 0.985619 21 9 218
-0.062004 -0.040633 1.00157 29 14 217
0.184155 -0.0696031 1.2647 32 18 216
0.0259888 -0.0505369 1.0032 1 13 219
0.0837185 0.082279 1.00334 12 24 218
0.0814441 0.078804 0.965698 12 24 218
0.0675704 -0.0233669 0.91159 7 13 219
0.0841773 0.0829736 1.01085 12 24 218
0.127742 -0.087374 1.15911 21 22 217
0.0506306 -0.108343 0.973376 5 30 217
0.232565 -0.0598451 0.993519 53 16 212
0.228152 0.093448 1.11269 50 21 212
0.0528671 -0.0553233 1.02641 2 23 218
0.0130557 -0.0439505 0.975254 5 15 219
0.0559602 0.109688 0.926592 5 37 216
0.101326 -0.0623316 1.17166 16 15 218
0.0952274 -0.0741595 1.17796 14 18 218
2.65815e-05 -0.0355883 0.962751 13 16 218
-0.204686 -0.0662249 1.05182 50 15 213
0.211669 0.209393 0.891924 49 50 208
0.162488 0.12181 0.735705 48 37 211
0.220984 0.217328 0.926368 49 50 208
0.180407 0.219909 0.89367 41 53 209
0.222531 0.220007 0.93539 50 50 208
-0.0958403 -0.0010892 0.956987 33 1 217
0.0428847 0.229216 0.937601 8 54 212
-0.0553238 -0.0913268 1.01176 19 23 217
-0.192223 0.135463 0.995308 51 31 211
-0.0610446 0.0435726 0.943572 22 10 218
-0.102657 0.0229559 0.948327 33 4 217
-0.130828 0.105039 0.952288 34 24 215
0.0160979 -0.0400048 0.952243 0 10 219
-0.0681126 0.192614 0.914416 18 46 214
-0.0552751 0.226905 1.02763 13 48 214
-0.0777149 -0.0603437 1.09243 20 14 218
-0.0887795 -0.0274988 1.0156 32 9 217
-0.0934551 0.230273 0.938438 24 53 211
-0.173977 -0.0454975 1.07831 40 10 215
-0.113447 0.20869 0.949098 28 48 212
-0.163564 0.131283 0.966781 42 30 213
-0.0494805 0.169015 0.87433 18 45 214
-0.0286869 0.20852 0.874126 9 52 213
-0.120505 -0.0486643 0.994381 34 12 216
-0.0461801 -0.0309215 0.982687 19 9 218
-0.105844 0.233628 0.968641 26 52 211
0.198063 0.00544231 1.24722 35 0 217
0.0109439 -0.119389 1.00653 2 28 218
-0.00527004 -0.0393295 0.970044 9 12 219
0.00573198 -0.0176119 0.94876 8 7 219
-0.0500506 -0.0310156 1.00245 34 15 216
-0.0457308 0.0902994 0.982039 35 29 215
-0.0325134 0.0706728 0.989281 30 21 216
0.069201 -0.0833569 1.46504 6 17 219
0.0567343 0.0027819 0.956533 1 5 219
-0.042812 0.0446651 1.13864 21 9 218
-0.0877631 0.0575594 1.37595 25 9 218
0.0396862 -0.0642897 0.987991 0 25 218
-0.00128619 -0.0375539 0.960184 14 17 218
0.142041 -0.0921774 1.21931 25 24 216
0.0150716 0.130085 0.938486 4 36 216
-0.022507 0.180526 0.996871 11 43 215
0.0806389 0.0846016 0.92414 15 24 218
-0.0214212 0.134109 0.958156 14 36 216
0.203994 0.00447284 1.14675 39 0 216
0.234014 -0.00264931 1.14349 47 2 214
0.0434553 -0.0326522 0.971831 2 12 219
-0.0187337 0.032593 0.941318 19 7 218
0.052888 -0.0559198 1.03174 2 21 218
-0.0260706 0.0659872 0.945421 29 21 217
0.0904277 0.076262 0.963276 16 24 218
0.0356846 -0.0731983 1.04154 3 28 218
0.0953003 -0.0745458 1.16819 13 23 218
-0.059192 0.0463774 0.944357 29 12 217
0.0457491 0.120715 0.92138 3 35 216
0.20837 0.00321115 1.16674 43 1 215
-0.0491147 0.0620093 0.933791 38 19 215
0.0216286 0.0824642 0.936482 8 26 218
-0.0118223 0.0184192 0.94599 20 2 218
0.138304 -0.00517321 1.1843 24 3 218
0.0941307 -0.0483221 1.15906 13 12 219
0.119355 0.0525407 1.10582 21 11 218
0.0926161 0.0852071 0.979196 17 26 217
0.0922916 0.0866653 0.976529 16 25 217
-0.0141816 0.0833728 0.923164 21 27 217
0.0420104 -0.0391266 0.981462 1 19 219
0.234711 -0.0685114 1.17805 51 22 212
0.189249 0.156535 1.09096 41 41 211
0.0557028 0.106888 0.90414 4 38 216
0.285172 -0.00112218 1.13657 54 1 213
0.293007 -0.00121437 1.16915 54 1 213
0.236372 -0.0541424 1.16265 47 14 214
0.227297 0.106163 1.14725 42 21 214
0.259738 0.000514663 1.12802 51 1 213
-0.00425935 0.134805 0.9726 7 34 217
-0.118447 -0.0262374 0.99246 44 9 215
-0.0353641 -0.0749349 0.995511 19 23 217
-0.0916359 -0.0248798 1.0061 30 8 217
-0.156709 -0.0649215 1.04008 46 17 213
-0.00334403 -0.0629741 0.979291 8 18 218
0.0249861 -0.0596621 1.02375 2 19 218
0.126921 0.0988614 0.629397 44 43 211
-0.0835677 -0.0661979 1.03304 31 20 216
-0.0180565 -0.0712727 0.979102 17 25 217
-0.00907295 -0.066831 0.984476 11 21 218
0.258509 -0.0505829 1.02451 56 13 212
0.26342 -0.107972 1.06125 54 25 211
-0.165609 -0.0710076 1.04869 46 18 214
0.207063 0.0517023 0.844171 53 13 213
-0.0294276 -0.0535006 0.981693 17 17 218
-0.110534 -0.0795337 1.05071 39 23 214
-0.0675969 -0.0824667 1.0463 22 21 217
-0.0959657 0.131508 0.942367 35 35 214
-0.0605804 0.0839285 0.94517 27 22 216
-0.070196 -0.0570912 1.03819 25 16 217
0.1776 0.1006 1.21951 31 19 216
0.271531 0.000267615 1.09067 54 0 213
-0.100991 0.0302827 0.947348 36 6 216
-0.211484 -0.0381169 1.03046 49 8 214
-0.0979875 -0.0133243 0.780107 38 5 216
-0.109197 0.0231927 0.946304 37 5 216
0.216317 0.00963597 1.06096 44 1 215
0.209158 -0.0471985 1.13615 42 13 215
0.231072 -0.0536722 1.14006 43 11 215
0.189127 0.15624 1.08786 37 34 213
0.133814 -0.0541495 1.17353 23 14 218
-0.165582 0.120898 0.995698 44 28 213
0.220458 0.096416 1.1151 45 21 214
-0.145269 0.134647 0.758227 49 40 210
-0.146202 -0.0617784 1.04857 43 16 214
-0.0783038 -0.070194 1.03449 26 19 217
-0.211506 -0.0578482 1.04756 49 12 213
0.135928 -0.0891396 1.18155 23 23 217
-0.0284469 -0.0317294 0.948229 31 19 216
-0.0459864 0.028405 0.934101 39 5 216
-0.0574779 -0.0605861 1.01502 38 28 214
-0.0636362 -0.0504682 0.991827 42 25 214
0.0700713 0.0503668 0.719147 18 26 217
0.218107 0.0961737 1.10688 51 25 212
0.172624 -0.0478047 1.1475 34 15 216
0.20283 0.00385179 1.1421 43 1 215
0.266602 -0.0503199 1.06199 57 13 211
-0.0450524 -0.0768146 0.936427 21 24 217
-0.0888989 -0.050021 1.02384 31 15 216
-0.0534671 -0.108946 0.995304 18 28 217
-0.0367322 -0.0293004 0.959777 20 11 218
0.141052 0.109921 1.21944 24 22 217
-0.0618884 0.0231301 0.951419 27 4 218
-0.116089 -0.028026 0.978431 37 8 216
0.0574584 -0.0990842 0.961515 7 28 218
0.223968 0.0176422 1.16487 45 1 215
0.201471 0.154344 1.08051 43 38 212
0.204996 0.155671 1.09278 45 40 211
-0.101094 -0.0641495 1.02998 44 22 214
0.0440044 -0.0325435 0.971533 3 13 219
0.0435337 -0.0324566 0.967235 1 13 219
0.094827 -0.0815127 1.17902 14 22 218
0.0930239 -0.0810639 1.16727 14 21 218
-0.0305343 -0.052897 0.983631 21 19 217
0.0825212 0.0863538 0.937465 15 25 217
-0.0254022 0.0272944 0.965307 22 5 218
0.163059 -0.0812731 1.12381 32 25 216
0.147727 0.149981 1.10313 28 34 215
-0.015903 -0.0532187 0.989026 17 20 218
0.0106465 -0.0195471 0.949855 3 7 219
0.0851208 -0.0375817 0.992921 15 11 219
0.053525 -0.064567 1.03321 2 27 218
0.175126 0.0165269 1.15489 34 1 217
0.0057894 -0.0197331 0.956605 10 9 219
-0.0135525 -0.0417249 0.974283 19 18 218
0.0455405 -0.0519266 0.939121 1 25 218
0.0296247 -0.0487101 0.98912 7 23 218
0.0519939 -0.0550526 1.02196 5 17 219
0.149718 0.106866 1.19582 26 23 217
-0.00891666 0.0340708 0.930833 20 8 218
0.115536 -0.0563115 1.19836 18 13 218
0.0276133 0.123558 0.913887 0 33 217
0.0815944 0.119809 0.918924 16 34 216
0.0599874 -0.0703125 1.10494 3 26 218
-0.110418 -0.156438 1.71005 24 27 216
-0.0101315 0.0135645 0.926289 20 0 218
-0.0110675 0.0135234 0.935731 25 0 218
0.0609027 0.00821596 0.9097 6 2 219
0.231021 0.0181144 1.18873 48 1 214
0.0753448 -0.00477417 0.875128 15 7 219
0.0700495 -0.0243512 0.940751 10 10 219
0.0508671 -0.0244618 0.956983 4 9 219
0.00401575 -0.0998692 1.05549 7 25 218
-0.0994963 -0.0260099 1.02201 37 9 216
-0.0301282 0.0156077 0.949229 26 1 218
-0.0591343 0.0012586 0.938967 42 4 215
-0.0588014 0.0466919 0.944961 30 12 217
0.0359518 0.094867 0.948485 3 30 217
-0.0597423 0.0166019 0.948679 32 2 217
0.106346 0.0885286 0.970387 22 28 216
-0.0113125 -0.0178184 0.95288 19 10 218
0.116523 -0.0546088 1.16481 20 15 218
0.042317 -0.0378156 0.968118 1 19 219
0.0110957 -0.050456 0.979168 14 25 217
0.0935481 -0.0474811 1.15301 13 17 218
0.146026 0.073318 1.18379 26 15 217
0.0638409 -0.00705562 0.929327 8 7 219
0.0703018 -0.0197741 0.942448 12 8 219
0.091883 0.116776 0.921326 18 43 214
0.0216558 0.082996 0.938645 11 28 217
-0.0488449 0.0279645 0.943739 33 6 217
0.116868 -0.0436152 1.18089 19 14 218
0.0944063 -0.0823634 1.18364 12 24 218
-0.087312 -0.029643 1.00833 39 12 215
-0.00350549 -0.0799195 0.972435 6 22 218
-0.0906663 -0.0578356 1.03183 37 19 215
0.188625 -0.0633822 1.13243 36 15 216
0.0306989 -0.0517815 1.00355 0 17 219
0.0815226 0.0503159 0.942336 15 13 219
0.0815241 0.0499424 0.939282 15 13 219
-0.11148 0.0131748 0.937799 47 1 214
-0.0571297 0.0283344 0.926969 30 6 217
-0.124128 -0.0819728 0.995901 48 27 212
-0.0993269 0.00967478 0.94774 45 0 215
0.0495348 -0.0625304 1.03186 2 23 218
-0.0534367 -0.0832544 0.994915 33 32 214
-0.109234 0.0318445 0.944832 46 7 214
0.0256703 -0.0489983 0.973938 6 21 218
0.0546549 -0.0610633 1.00407 8 18 219
0.184158 -0.0566636 1.09177 37 15 216
0.00179405 -0.0203522 0.971659 16 12 219
0.0949083 -0.0836671 1.19529 13 23 218
0.0884239 0.0950974 1.00054 16 26 217
0.0344872 -0.0659471 1.03748 0 21 218
0.0366819 -0.072991 1.03795 0 24 218
0.177474 0.10252 1.21576 32 21 216
-0.102236 -0.0767855 1.03369 37 23 215
0.19117 0.158642 1.10439 38 36 213
0.100388 0.0850359 0.972148 19 24 217
0.140318 0.00245395 1.12954 27 3 218
0.147974 0.0600194 1.2587 24 11 218
0.177519 0.108068 1.20633 33 24 216
0.235171 -0.0688607 1.1813 48 20 213
0.223216 0.101808 1.11087 53 27 211
0.234898 0.0995286 1.1146 54 24 211
0.20857 -0.0576435 1.16771 43 19 214
0.177771 -0.0635247 1.17932 36 22 215
-0.00841256 0.0410721 0.930889 22 11 218
0.0876206 0.00160337 1.05141 13 3 219
-0.00353121 -0.0383681 0.973731 18 19 218
0.0503237 -0.0505987 1.00934 1 20 219
0.13437 0.0998447 1.17383 23 22 217
-0.0144 0.0446392 0.952409 22 12 218
0.190371 -0.0743661 1.15648 39 23 215
0.0905653 -0.0796401 1.14319 14 22 218
0.0822116 0.0209248 0.893039 17 4 219
0.0898688 -0.0795575 1.142 13 21 218
0.252142 0.0978518 1.11081 55 22 211
0.252319 0.100757 1.11537 54 22 211
-0.0728745 -0.0432728 1.01586 38 17 215
0.0924064 0.124296 0.917345 18 42 215
0.0786836 0.120998 0.925438 12 43 215
-0.0364697 -0.0296553 0.97416 29 15 217
-0.0498453 -0.0142112 0.945565 37 10 216
-0.0591657 0.0439958 0.934155 43 12 215
-0.00964331 -0.0796685 1.00256 19 32 216
0.0925188 0.124513 0.918692 19 45 214
0.0786106 0.12054 0.92264 13 44 215
0.216626 0.00738714 1.16178 43 0 215
0.176029 0.00720754 1.12765 37 1 216
0.179389 0.0142418 1.15953 34 1 217
0.171269 -0.0600743 1.16427 31 14 217
0.0942715 -0.0666148 1.1749 14 17 218
0.0801437 0.0575835 0.922984 15 15 218
0.138065 0.0761199 1.21 24 15 218
0.139674 0.00338122 1.11901 27 1 218
0.100666 0.100759 0.976265 21 32 216
0.118321 -0.0507094 1.16873 20 14 218
0.14389 0.106873 1.22305 24 22 217
-0.0347456 -0.0741226 0.988347 17 22 217
-0.0950652 0.0276327 0.891044 34 6 216
0.133993 0.0272254 1.11837 24 4 218
-0.108208 0.0211564 0.937018 47 4 214
-0.045233 -0.0140184 0.970207 33 10 217
-0.093248 0.028991 0.911961 47 6 214
-0.106982 0.0242693 0.943644 41 5 215
-0.054608 -0.0595019 1.00295 30 23 216
-0.0298337 -0.0692762 0.954314 23 27 216
0.0851571 0.000978405 1.00129 13 4 219
-0.0542107 0.0224575 0.942581 32 4 217
0.115278 -0.0584163 1.18563 18 15 218
-0.0878111 -0.0264447 1.00999 41 11 215
0.0447214 0.122005 0.931874 1 38 216
0.0167781 -0.042798 0.997732 10 19 218
-0.0229127 -0.0750018 0.985846 22 27 216
-0.0255559 -0.0144132 0.946435 24 10 218
-0.0230646 0.0271215 0.939072 24 5 218
-0.0242905 -0.0142847 0.946664 23 9 218
-0.0261315 -0.014943 0.960165 26 11 217
0.183557 -0.0715074 1.21981 35 21 216
0.159051 -0.0565166 1.21847 29 18 217
0.120932 -0.040162 1.11589 22 14 218
0.0108425 0.116711 0.939027 11 37 216
0.0276671 -0.0511594 0.9995 4 20 218
-0.0407335 0.126895 0.92626 33 44 212
-0.0389916 0.0929434 0.94156 28 28 215
0.0223206 -0.352908 2.75104 2 32 217
0.0234349 -0.320213 2.51231 2 33 217
0.0230142 -0.317702 2.49569 2 33 217
0.0821185 0.0875054 0.973748 12 27 217
0.00819375 -0.0200806 0.913096 16 13 218
0.16812 0.116467 1.29603 28 24 216
0.171136 0.11929 1.32114 27 23 216
0.145897 0.105919 1.28091 23 22 217
-0.0190187 -0.0413634 0.946626 25 20 217
0.236281 0.0983569 1.14083 51 23 212
-0.346219 0.145991 3.0417 32 10 217
0.244057 0.0137948 1.56881 35 0 217
0.00436648 0.0325805 0.798406 29 11 217
0.00724865 0.031074 0.766982 30 11 217
-0.00948814 -0.0133849 0.895401 29 13 217
-0.256397 -0.172452 2.10633 39 24 214
-0.270164 -0.179161 2.18214 39 24 215
-0.253489 -0.170344 2.089 39 24 214
0.182342 0.0804803 0.962544 54 27 211
-0.0142494 -0.0193031 0.971836 23 12 218
-0.00542284 -0.0193715 0.959621 21 12 218
-0.0618323 -0.136545 1.72877 17 23 217
-0.272144 0.126141 2.59194 31 11 217
0.0601001 0.00671634 0.868262 4 2 219
0.117796 0.102576 1.16251 19 25 217
-0.306058 0.139853 2.8545 30 11 217
0.0409788 -0.0583527 0.952743 3 27 217
-0.256879 0.119427 2.49768 31 10 217
0.00985549 -0.018134 0.892819 11 10 219
0.14997 0.0779494 1.2331 26 15 217
0.156934 0.0822703 1.29451 26 15 217
0.0899739 0.0188946 1.02919 16 2 219
0.0274965 -0.0532708 0.949227 10 26 217
0.127733 -0.0978746 1.1486 21 32 216
0.0403514 -0.0625729 1.01855 4 27 218
0.0678213 -0.0158096 0.884347 7 12 219
-0.0241903 -0.0493381 0.932997 32 25 215
0.0598547 0.00648076 0.834972 3 3 219
0.0599477 0.00642282 0.835553 3 3 219
0.0499909 -0.050269 0.987673 0 22 218
-0.181594 0.0984615 2.02465 29 11 217
0.0572817 0.00642116 0.847134 4 2 219
0.0573875 0.0086782 0.813831 4 2 219
0.0755614 -0.0194054 0.897888 10 15 219
-0.0101403 0.0359603 0.836358 34 11 216
0.0291497 -0.0176612 0.873248 12 15 218
0.0576655 0.00864857 0.767515 2 3 219
0.0576241 0.00858594 0.76307 2 3 219
-0.0346048 -0.0302213 0.96879 35 17 216
0.0576465 0.00850877 0.76243 2 4 219
0.0670433 -0.014987 0.876882 7 12 219
0.0596501 -0.00718043 0.900603 2 10 219
0.0500001 -0.0599926 0.97329 1 29 217
-0.0152847 0.0324194 0.926968 22 7 218
-0.0230069 0.0258831 0.927376 20 5 218
0.0165364 -0.0409484 0.982964 9 19 218
-0.00743841 -0.0530802 0.976706 17 23 217
-0.0094587 -0.0645132 0.988917 18 26 217
0.11287 -0.052212 1.15347 19 15 218
0.044999 -0.0619553 1.00596 0 25 218
-0.0233492 -0.0422429 0.97926 23 19 217
0.063529 -0.0229163 0.942398 8 13 219
0.054582 -0.0628749 1.02558 3 24 218
0.170717 0.10188 1.20333 32 22 216
0.104738 0.14834 1.06362 19 41 215
0.0564558 0.00584952 0.940831 5 2 219
-0.314438 -0.174241 2.17732 41 21 214
0.17592 -0.0498335 1.15217 36 16 216
0.0497147 -0.0300363 0.961283 4 15 219
0.0807744 0.0910636 0.809047 20 36 215
-0.0247627 -0.0529733 0.981595 20 22 217
0.153076 -0.0593037 1.15083 29 18 217
0.152549 -0.0589896 1.14723 29 18 217
0.0904624 0.000911452 1.06826 14 3 219
-0.0181911 -0.0506162 0.966834 24 23 216
0.0787542 0.0739999 0.901208 14 24 218
0.0791164 0.0749327 0.910823 14 24 218
-0.0755605 -0.152972 1.52019 24 32 216
0.22347 0.0967239 1.12854 50 22 212
0.238731 0.104035 1.17285 51 23 212
-0.0143709 0.0126377 0.963268 23 0 218
0.0341001 -0.0460777 0.955271 0 20 218
-0.0130218 0.0271808 0.944658 17 5 218
0.0178409 -0.0391018 0.966763 6 17 218
-0.0287126 -0.0319415 0.95026 22 15 217
0.0176688 -0.0391826 0.971139 10 20 218
0.0140724 0.0809401 0.926838 8 25 218
0.084347 0.0900486 0.959346 15 29 217
0.0837818 0.089375 0.953811 15 29 217
-0.049313 -0.0532375 0.972396 28 22 216
-0.0942966 0.0665896 1.46965 24 10 218
-0.0962611 0.0684782 1.49793 24 10 218
-0.0967665 0.0701029 1.50647 24 10 218
0.0294635 -0.0495855 0.975494 0 16 219
0.0526084 -0.0624662 1.00917 3 24 218
-0.0963496 0.0695277 1.5029 24 10 218
0.109947 -0.0560315 1.12312 18 15 218
0.0832483 0.0531082 0.960587 14 13 219
0.0500873 -0.0544457 1.02721 5 17 218
0.0837414 0.053238 0.963207 14 14 218
0.146617 -0.0507356 1.02086 34 19 216
0.0998825 0.0193454 1.06123 18 2 219
0.178218 0.106336 1.38897 28 19 217
0.101431 0.0798309 0.998105 19 20 218
-0.0388436 -0.0312686 0.983965 26 14 217
